#N canvas 156 -12 1920 1007 12;
#X floatatom 256 146 5 0 0 0 - - - 0;
#X obj 256 173 select -4 -3 -2 -1 0 1 2 3 4 5 6 7 8 9;
#X obj 740 188 loadbang;
#X msg 738 234 55;
#X floatatom 736 272 5 0 0 0 - - - 0;
#X obj 634 354 + 0;
#X msg 276 264 0;
#X msg 316 264 3;
#X msg 352 265 5;
#X msg 389 265 7;
#X msg 424 265 10;
#X obj 16 9 tgl 15 0 empty empty empty 17 7 0 10 #fcfcfc #000000 #000000 0 1;
#X msg 16 34 \; pd dsp \$1;
#X msg 468 263 12;
#X msg 508 262 15;
#X msg 548 263 17;
#X msg 589 264 19;
#X obj 874 161 metro 4000;
#X obj 835 128 tgl 15 0 empty empty empty 17 7 0 10 #fcfcfc #000000 #000000 0 1;
#X floatatom 932 132 5 0 0 0 - - - 0;
#X obj 855 195 f;
#X obj 898 197 + 1;
#X obj 992 81 r osctempo;
#X obj 917 55 loadbang;
#X obj 823 56 r oscplayseq;
#X obj 875 230 mod 2;
#X obj 849 294 select 0 1;
#X floatatom 812 516 5 0 0 0 - - - 0;
#X obj 755 604 mtof;
#X floatatom 773 407 5 0 0 0 - - - 0;
#X msg 891 406 55;
#X obj 256 106 r oscscore;
#X msg 933 99 1000;
#X obj 841 666 vline~;
#X msg 841 614 0.85 100 \, 0 500 500;
#X obj 754 670 osc~;
#X obj 800 888 dac~;
#X obj 812 748 *~;
#X msg 629 264 22;
#X msg 235 264 -1;
#X msg 190 262 -4;
#X msg 143 262 -6;
#X msg 96 262 -9;
#N canvas 397 94 719 486 oscReceive 0;
#X obj 55 184 netreceive -u -b;
#X msg 78 143 listen 0;
#X text 152 143 stop listening;
#X text 64 58 packets from network;
#X text 173 177 UDP packets \, binary output, f 13;
#X obj 45 314 print;
#X obj 45 272 oscparse;
#X text 150 114 listen on port 8000;
#X obj 177 269 oscparse;
#X obj 177 293 list trim;
#X floatatom 129 433 5 0 0 0 - - - 0;
#X text 241 267 Parse the OSC message;
#X obj 177 319 route unity;
#X msg 66 115 listen 8000;
#X obj 66 84 loadbang;
#X floatatom 233 435 5 0 0 0 - - - 0;
#X obj 232 412 route tempo;
#X obj 233 462 s osctempo;
#X floatatom 328 435 5 0 0 0 - - - 0;
#X obj 327 412 route playseq;
#X obj 328 462 s oscplayseq;
#X floatatom 426 435 5 0 0 0 - - - 0;
#X obj 128 410 route score;
#X obj 129 460 s oscscore;
#X obj 425 412 route impact;
#X obj 426 462 s oscimpact;
#X floatatom 524 434 5 0 0 0 - - - 0;
#X obj 523 411 route blue;
#X obj 524 461 s oscblue;
#X floatatom 615 433 5 0 0 0 - - - 0;
#X obj 614 410 route red;
#X obj 615 460 s oscred;
#X connect 0 0 6 0;
#X connect 0 0 8 0;
#X connect 1 0 0 0;
#X connect 6 0 5 0;
#X connect 8 0 9 0;
#X connect 9 0 12 0;
#X connect 10 0 23 0;
#X connect 12 0 16 0;
#X connect 12 0 19 0;
#X connect 12 0 22 0;
#X connect 12 0 24 0;
#X connect 12 0 27 0;
#X connect 12 0 30 0;
#X connect 13 0 0 0;
#X connect 14 0 13 0;
#X connect 15 0 17 0;
#X connect 16 0 15 0;
#X connect 18 0 20 0;
#X connect 19 0 18 0;
#X connect 21 0 25 0;
#X connect 22 0 10 0;
#X connect 24 0 21 0;
#X connect 26 0 28 0;
#X connect 27 0 26 0;
#X connect 29 0 31 0;
#X connect 30 0 29 0;
#X restore 13 135 pd oscReceive;
#N canvas 727 97 450 300 oscSend 0;
#X msg 158 207 disconnect;
#X obj 61 253 netsend -u -b;
#X obj 59 55 list prepend send;
#X obj 59 80 list trim;
#X msg 150 175 connect 127.0.0.1 8001;
#X obj 59 29 r oscOut;
#X text 301 163 send to port 8001;
#X msg 147 148 connect localhost 8001;
#X obj 147 108 loadbang;
#X connect 0 0 1 0;
#X connect 2 0 3 0;
#X connect 3 0 1 0;
#X connect 4 0 1 0;
#X connect 5 0 2 0;
#X connect 7 0 1 0;
#X connect 8 0 7 0;
#X restore 13 111 pd oscSend;
#X obj 1520 270 *~;
#X obj 1584 238 vline~;
#X obj 1330 57 noise~;
#X obj 1583 146 bng 15 250 50 0 empty empty empty 17 7 0 10 #fcfcfc #000000 #000000;
#X msg 1585 186 0.75 25 \, 0.25 50 75 \, 0 50 150;
#X obj 1411 172 *~;
#X obj 1429 109 osc~;
#X floatatom 1429 51 5 0 0 0 - - - 0;
#X obj 1461 790 *~;
#X obj 1561 675 vline~;
#X obj 1560 582 bng 15 250 50 0 empty empty empty 17 7 0 10 #fcfcfc #000000 #000000;
#X obj 1427 1242 *~;
#X obj 1511 1203 vline~;
#X obj 1512 1112 bng 15 250 50 0 empty empty empty 17 7 0 10 #fcfcfc #000000 #000000;
#X floatatom 1361 1004 5 0 0 0 - - - 0;
#X text 1590 49 impact noise;
#X msg 1512 1151 0.75 25 \, 0 1000 75;
#X obj 1577 108 r oscimpact;
#X obj 1553 545 r oscblue;
#X obj 1512 1073 r oscred;
#X obj 1161 174 loadbang;
#X floatatom 1161 242 5 0 0 0 - - - 0;
#X obj 326 410 vsl 19 162 0 1 0 0 empty empty Score\ &\ Playseq\ Volume -40 -9 0 12 #fcfcfc #000000 #000000 0 1;
#X floatatom 326 580 5 0 0 0 - - - 0;
#X obj 809 820 *~;
#X obj 1418 1361 dac~;
#X obj 1426 1293 *~;
#X obj 1452 913 dac~;
#X obj 1460 845 *~;
#X obj 1511 398 dac~;
#X obj 1519 330 *~;
#N canvas 0 50 450 300 (subpatch) 0;
#X array playseq_waveform 2051 float 0;
#X coords 0 1 2050 -1 200 100 1 0 0;
#X restore 42 496 graph;
#N canvas 0 50 450 300 (subpatch) 0;
#X array se_waveform 2051 float 0;
#X coords 0 1 2050 -1 200 100 1 0 0;
#X restore 41 670 graph;
#X obj 358 961 tabwrite~ playseq_waveform;
#X text 1158 142 Initialize SE;
#X text 384 59 score & playseq controlled by player's score;
#X obj 366 1169 tabwrite~ se_waveform;
#X obj 358 884 tgl 15 0 empty empty empty 17 7 0 10 #fcfcfc #000000 #000000 0 1;
#X obj 358 921 metro 100;
#X obj 365 1076 tgl 15 0 empty empty empty 17 7 0 10 #fcfcfc #000000 #000000 0 1;
#X obj 365 1113 metro 100;
#X text 270 1043 Check this toggle to record se_waveform;
#X text 266 853 Check this toggle to record playseq_waveform;
#X obj 536 412 vsl 19 162 0 1 0 0 empty empty Impact\ Noise\ Volume -40 -9 0 12 #fcfcfc #000000 #000000 0 1;
#X floatatom 536 582 5 0 0 0 - - - 0;
#X obj 319 638 vsl 19 162 0 1 0 0 empty empty Blue\ Cube\ Destroyed\ Volume -40 -9 0 12 #fcfcfc #000000 #000000 0 1;
#X floatatom 319 808 5 0 0 0 - - - 0;
#X obj 539 639 vsl 19 162 0 1 0 0 empty empty Red\ Cube\ Destroyed\ Volume -40 -9 0 12 #fcfcfc #000000 #000000 0 1;
#X floatatom 539 809 5 0 0 0 - - - 0;
#X obj 1118 119 vsl 19 100 0 440 0 0 empty empty empty 0 -9 0 12 #fcfcfc #000000 #000000 0 1;
#X obj 1393 1168 +~;
#X obj 1392 1209 -~ 1;
#X obj 1332 1123 phasor~;
#X obj 1409 1137 phasor~;
#X obj 1409 1100 * -1;
#X msg 1407 1068 0;
#X msg 1458 1068 0.5;
#X obj 1441 1022 bng 15 250 50 0 empty empty empty 17 7 0 10 #fcfcfc #000000 #000000;
#X text 1528 979 red cube destroyed (Square Wave);
#X text 1558 502 blue cube destroyed (Triangle Wave);
#X obj 1332 537 phasor~;
#X floatatom 1332 476 5 0 0 0 - - - 0;
#X obj 1407 536 phasor~;
#X obj 1411 511 * -1;
#X obj 1370 677 +~;
#X msg 1428 474 0;
#X obj 1428 444 bng 15 250 50 0 empty empty empty 17 7 0 10 #fcfcfc #000000 #000000;
#X obj 1412 562 *~ 2;
#X obj 1332 570 *~ 2;
#X obj 1332 597 -~ 1;
#X obj 1411 590 -~ 1;
#X obj 1334 629 clip~ 0 1;
#X obj 1411 621 clip~ 0 1;
#X obj 1428 411 loadbang;
#X obj 1441 989 loadbang;
#X obj 1368 707 *~ 2;
#X obj 1401 756 -~ 1;
#X msg 1562 623 1 25 \, 0.25 50 75 \, 0 50 150;
#X msg 1161 205 416.3;
#X text 37 316 INSTRUCTIONS: 1 Use the sliders to set SFX volume. 2 The bangs and toggles attached to receiver objects can be pressed to test associated SFX., f 31;
#X text 1607 145 <- hit to test;
#X text 1583 583 <- hit to test;
#X text 1537 1110 <- hit to test;
#X text 726 127 hit to test ->;
#X connect 0 0 1 0;
#X connect 1 0 42 0;
#X connect 1 1 41 0;
#X connect 1 2 40 0;
#X connect 1 3 39 0;
#X connect 1 4 6 0;
#X connect 1 5 7 0;
#X connect 1 6 8 0;
#X connect 1 7 9 0;
#X connect 1 8 10 0;
#X connect 1 9 13 0;
#X connect 1 10 14 0;
#X connect 1 11 15 0;
#X connect 1 12 16 0;
#X connect 1 13 38 0;
#X connect 2 0 3 0;
#X connect 3 0 4 0;
#X connect 4 0 5 1;
#X connect 5 0 29 0;
#X connect 6 0 5 0;
#X connect 7 0 5 0;
#X connect 8 0 5 0;
#X connect 9 0 5 0;
#X connect 10 0 5 0;
#X connect 11 0 12 0;
#X connect 13 0 5 0;
#X connect 14 0 5 0;
#X connect 15 0 5 0;
#X connect 16 0 5 0;
#X connect 17 0 20 0;
#X connect 18 0 17 0;
#X connect 19 0 17 1;
#X connect 20 0 21 0;
#X connect 20 0 25 0;
#X connect 21 0 20 1;
#X connect 22 0 19 0;
#X connect 23 0 32 0;
#X connect 24 0 18 0;
#X connect 24 0 32 0;
#X connect 25 0 26 0;
#X connect 26 0 29 0;
#X connect 26 1 30 0;
#X connect 27 0 28 0;
#X connect 27 0 34 0;
#X connect 28 0 35 0;
#X connect 29 0 27 0;
#X connect 30 0 27 0;
#X connect 31 0 0 0;
#X connect 32 0 19 0;
#X connect 33 0 37 1;
#X connect 34 0 33 0;
#X connect 35 0 37 0;
#X connect 37 0 69 0;
#X connect 38 0 5 0;
#X connect 39 0 5 0;
#X connect 40 0 5 0;
#X connect 41 0 5 0;
#X connect 42 0 5 0;
#X connect 45 0 75 0;
#X connect 46 0 45 1;
#X connect 47 0 50 0;
#X connect 48 0 49 0;
#X connect 49 0 46 0;
#X connect 50 0 45 0;
#X connect 51 0 50 1;
#X connect 52 0 51 0;
#X connect 53 0 73 0;
#X connect 54 0 53 1;
#X connect 55 0 122 0;
#X connect 56 0 71 0;
#X connect 57 0 56 1;
#X connect 58 0 61 0;
#X connect 59 0 97 0;
#X connect 59 0 99 0;
#X connect 61 0 57 0;
#X connect 62 0 48 0;
#X connect 63 0 55 0;
#X connect 64 0 58 0;
#X connect 65 0 123 0;
#X connect 66 0 52 0;
#X connect 66 0 59 0;
#X connect 66 0 106 0;
#X connect 67 0 68 0;
#X connect 68 0 69 1;
#X connect 69 0 36 0;
#X connect 69 0 36 1;
#X connect 69 0 78 0;
#X connect 71 0 70 0;
#X connect 71 0 70 1;
#X connect 71 0 81 0;
#X connect 73 0 72 0;
#X connect 73 0 72 1;
#X connect 73 0 81 0;
#X connect 75 0 74 0;
#X connect 75 0 74 1;
#X connect 75 0 81 0;
#X connect 82 0 83 0;
#X connect 83 0 78 0;
#X connect 84 0 85 0;
#X connect 85 0 81 0;
#X connect 88 0 89 0;
#X connect 89 0 75 1;
#X connect 90 0 91 0;
#X connect 91 0 73 1;
#X connect 92 0 93 0;
#X connect 93 0 71 1;
#X connect 94 0 66 0;
#X connect 95 0 96 0;
#X connect 96 0 56 0;
#X connect 97 0 95 0;
#X connect 98 0 95 0;
#X connect 99 0 98 0;
#X connect 100 0 97 1;
#X connect 101 0 98 1;
#X connect 102 0 100 0;
#X connect 102 0 101 0;
#X connect 105 0 113 0;
#X connect 106 0 105 0;
#X connect 106 0 108 0;
#X connect 107 0 112 0;
#X connect 108 0 107 0;
#X connect 109 0 120 0;
#X connect 110 0 105 1;
#X connect 110 0 107 1;
#X connect 111 0 110 0;
#X connect 112 0 115 0;
#X connect 113 0 114 0;
#X connect 114 0 116 0;
#X connect 115 0 117 0;
#X connect 116 0 109 0;
#X connect 117 0 109 1;
#X connect 118 0 111 0;
#X connect 119 0 102 0;
#X connect 120 0 121 0;
#X connect 121 0 53 0;
#X connect 122 0 54 0;
#X connect 123 0 66 0;
