#N canvas 117 692 2560 1349 12;
#X floatatom 256 146 5 0 0 0 - - - 0;
#X obj 256 173 select -4 -3 -2 -1 0 1 2 3 4 5 6 7 8 9;
#X obj 740 188 loadbang;
#X msg 738 234 55;
#X floatatom 736 272 5 0 0 0 - - - 0;
#X obj 634 354 + 0;
#X msg 276 264 0;
#X msg 316 264 3;
#X msg 352 265 5;
#X msg 389 265 7;
#X msg 424 265 10;
#X obj 16 9 tgl 15 0 empty empty empty 17 7 0 10 #fcfcfc #000000 #000000 0 1;
#X msg 16 34 \; pd dsp \$1;
#X msg 468 263 12;
#X msg 508 262 15;
#X msg 548 263 17;
#X msg 589 264 19;
#X obj 874 161 metro 4000;
#X obj 835 128 tgl 15 0 empty empty empty 17 7 0 10 #fcfcfc #000000 #000000 0 1;
#X floatatom 932 132 5 0 0 0 - - - 0;
#X obj 855 195 f;
#X obj 898 197 + 1;
#X obj 992 81 r osctempo;
#X obj 917 55 loadbang;
#X obj 823 56 r oscplayseq;
#X obj 875 230 mod 2;
#X obj 849 294 select 0 1;
#X floatatom 812 516 5 0 0 0 - - - 0;
#X obj 755 604 mtof;
#X floatatom 773 407 5 0 0 0 - - - 0;
#X msg 891 406 55;
#X obj 256 106 r oscscore;
#X msg 933 99 1000;
#X obj 841 666 vline~;
#X msg 841 614 0.85 100 \, 0 500 500;
#X obj 754 670 osc~;
#X obj 800 888 dac~;
#X obj 812 748 *~;
#X msg 629 264 22;
#X msg 235 264 -1;
#X msg 190 262 -4;
#X msg 143 262 -6;
#X msg 96 262 -9;
#N canvas 397 94 719 486 oscReceive 0;
#X obj 55 184 netreceive -u -b;
#X msg 78 143 listen 0;
#X text 152 143 stop listening;
#X text 64 58 packets from network;
#X text 173 177 UDP packets \, binary output, f 13;
#X obj 45 314 print;
#X obj 45 272 oscparse;
#X text 150 114 listen on port 8000;
#X obj 177 269 oscparse;
#X obj 177 293 list trim;
#X floatatom 129 433 5 0 0 0 - - - 0;
#X text 241 267 Parse the OSC message;
#X obj 177 319 route unity;
#X msg 66 115 listen 8000;
#X obj 66 84 loadbang;
#X floatatom 235 434 5 0 0 0 - - - 0;
#X obj 234 411 route tempo;
#X obj 235 461 s osctempo;
#X floatatom 333 433 5 0 0 0 - - - 0;
#X obj 332 410 route playseq;
#X obj 333 460 s oscplayseq;
#X floatatom 446 435 5 0 0 0 - - - 0;
#X obj 128 410 route score;
#X obj 129 460 s oscscore;
#X floatatom 541 435 5 0 0 0 - - - 0;
#X floatatom 632 434 5 0 0 0 - - - 0;
#X obj 540 412 route loss;
#X obj 631 411 route win;
#X floatatom 447 329 5 0 0 0 - - - 0;
#X obj 446 306 route pitch;
#X obj 446 462 s oscpoint;
#X obj 541 462 s oscloss;
#X obj 632 461 s oscwin;
#X obj 445 412 route point;
#X obj 447 356 s oscpitch;
#X connect 0 0 6 0;
#X connect 0 0 8 0;
#X connect 1 0 0 0;
#X connect 6 0 5 0;
#X connect 8 0 9 0;
#X connect 9 0 12 0;
#X connect 10 0 23 0;
#X connect 12 0 16 0;
#X connect 12 0 19 0;
#X connect 12 0 22 0;
#X connect 12 0 26 0;
#X connect 12 0 27 0;
#X connect 12 0 33 0;
#X connect 12 0 29 0;
#X connect 13 0 0 0;
#X connect 14 0 13 0;
#X connect 15 0 17 0;
#X connect 16 0 15 0;
#X connect 18 0 20 0;
#X connect 19 0 18 0;
#X connect 21 0 30 0;
#X connect 22 0 10 0;
#X connect 24 0 31 0;
#X connect 25 0 32 0;
#X connect 26 0 24 0;
#X connect 27 0 25 0;
#X connect 28 0 34 0;
#X connect 29 0 28 0;
#X connect 33 0 21 0;
#X restore 13 135 pd oscReceive;
#N canvas 727 97 450 300 oscSend 0;
#X msg 158 207 disconnect;
#X obj 61 253 netsend -u -b;
#X obj 59 55 list prepend send;
#X obj 59 80 list trim;
#X msg 150 175 connect 127.0.0.1 8001;
#X obj 59 29 r oscOut;
#X text 301 163 send to port 8001;
#X msg 147 148 connect localhost 8001;
#X obj 147 108 loadbang;
#X connect 0 0 1 0;
#X connect 2 0 3 0;
#X connect 3 0 1 0;
#X connect 4 0 1 0;
#X connect 5 0 2 0;
#X connect 7 0 1 0;
#X connect 8 0 7 0;
#X restore 13 111 pd oscSend;
#X obj 958 649 vsl 19 162 0 1 0 0 empty empty Score\ &\ Playseq\ Volume -40 -9 0 12 #fcfcfc #000000 #000000 0 1;
#X floatatom 958 819 5 0 0 0 - - - 0;
#X obj 809 820 *~;
#N canvas 0 50 450 300 (subpatch) 0;
#X array playseq_waveform 2051 float 0;
#X coords 0 1 2050 -1 200 100 1 0 0;
#X restore 42 496 graph;
#N canvas 0 50 450 300 (subpatch) 0;
#X array se_waveform 2051 float 0;
#X coords 0 1 2050 -1 200 100 1 0 0;
#X restore 41 670 graph;
#X obj 358 961 tabwrite~ playseq_waveform;
#X text 384 59 score & playseq controlled by player's score;
#X obj 366 1169 tabwrite~ se_waveform;
#X obj 358 884 tgl 15 0 empty empty empty 17 7 0 10 #fcfcfc #000000 #000000 0 1;
#X obj 358 921 metro 100;
#X obj 365 1076 tgl 15 0 empty empty empty 17 7 0 10 #fcfcfc #000000 #000000 0 1;
#X obj 365 1113 metro 100;
#X text 270 1043 Check this toggle to record se_waveform;
#X text 266 853 Check this toggle to record playseq_waveform;
#X text 37 316 INSTRUCTIONS: 1 Use the sliders to set SFX volume. 2 The bangs and toggles attached to receiver objects can be pressed to test associated SFX., f 31;
#X text 726 127 hit to test ->;
#X text 1198 825 Sound which will increase in pitch when more points are scored;
#X obj 1192 1219 dac~;
#X obj 1200 1151 *~;
#X obj 1493 963 vsl 19 162 0 1 0 0 empty empty Scored\ Point\ Volume -40 -9 0 12 #fcfcfc #000000 #000000 0 1;
#X floatatom 1493 1133 5 0 0 0 - - - 0;
#X floatatom 1325 1022 5 0 0 0 - - - 0;
#X obj 1325 995 mtof;
#X floatatom 1325 964 5 0 0 0 - - - 0;
#X obj 1200 1113 *~;
#X obj 1199 1033 vline~;
#X obj 1325 1095 lop~ 1000;
#X obj 1325 1071 bp~ 5000;
#X obj 1325 1047 phasor~;
#X msg 1199 964 0.8 \, 0 50 75;
#X obj 1199 931 bng 19 250 50 0 empty empty empty 0 -10 0 12 #fcfcfc #000000 #000000;
#X msg 1325 906 50;
#X obj 1199 887 r oscpoint;
#X text 1225 932 <- hit to test;
#X obj 1396 858 r oscpitch;
#X obj 1396 893 bng 19 250 50 0 empty empty empty 0 -10 0 12 #fcfcfc #000000 #000000;
#X obj 1395 928 + 1;
#X obj 1220 421 t b b;
#X obj 1220 475 line~;
#X obj 1220 499 pow~ 4;
#X msg 1220 451 1 \, 0 200;
#X obj 1220 533 *~;
#X obj 1308 467 noise~;
#X obj 1220 392 bng 19 250 50 0 empty empty empty 0 -10 0 12 #fcfcfc #000000 #000000;
#X text 1246 393 <- hit to test;
#X obj 1211 675 dac~;
#X obj 1219 607 *~;
#X obj 1401 419 vsl 19 162 0 1 0 0 empty empty Hit\ Object\ Volume -40 -9 0 12 #fcfcfc #000000 #000000 0 1;
#X floatatom 1401 589 5 0 0 0 - - - 0;
#X obj 1220 564 lop~ 2000;
#X obj 1308 491 hip~ 1000;
#X obj 1308 515 bp~ 2000 3;
#X obj 1220 368 r loss;
#X connect 0 0 1 0;
#X connect 1 0 42 0;
#X connect 1 1 41 0;
#X connect 1 2 40 0;
#X connect 1 3 39 0;
#X connect 1 4 6 0;
#X connect 1 5 7 0;
#X connect 1 6 8 0;
#X connect 1 7 9 0;
#X connect 1 8 10 0;
#X connect 1 9 13 0;
#X connect 1 10 14 0;
#X connect 1 11 15 0;
#X connect 1 12 16 0;
#X connect 1 13 38 0;
#X connect 2 0 3 0;
#X connect 3 0 4 0;
#X connect 4 0 5 1;
#X connect 5 0 29 0;
#X connect 6 0 5 0;
#X connect 7 0 5 0;
#X connect 8 0 5 0;
#X connect 9 0 5 0;
#X connect 10 0 5 0;
#X connect 11 0 12 0;
#X connect 13 0 5 0;
#X connect 14 0 5 0;
#X connect 15 0 5 0;
#X connect 16 0 5 0;
#X connect 17 0 20 0;
#X connect 18 0 17 0;
#X connect 19 0 17 1;
#X connect 20 0 21 0;
#X connect 20 0 25 0;
#X connect 21 0 20 1;
#X connect 22 0 19 0;
#X connect 23 0 32 0;
#X connect 24 0 18 0;
#X connect 24 0 32 0;
#X connect 25 0 26 0;
#X connect 26 0 29 0;
#X connect 26 1 30 0;
#X connect 27 0 28 0;
#X connect 27 0 34 0;
#X connect 28 0 35 0;
#X connect 29 0 27 0;
#X connect 30 0 27 0;
#X connect 31 0 0 0;
#X connect 32 0 19 0;
#X connect 33 0 37 1;
#X connect 34 0 33 0;
#X connect 35 0 37 0;
#X connect 37 0 47 0;
#X connect 38 0 5 0;
#X connect 39 0 5 0;
#X connect 40 0 5 0;
#X connect 41 0 5 0;
#X connect 42 0 5 0;
#X connect 45 0 46 0;
#X connect 46 0 47 1;
#X connect 47 0 36 0;
#X connect 47 0 36 1;
#X connect 47 0 50 0;
#X connect 53 0 54 0;
#X connect 54 0 50 0;
#X connect 55 0 56 0;
#X connect 56 0 52 0;
#X connect 63 0 62 0;
#X connect 63 0 62 1;
#X connect 63 0 52 0;
#X connect 64 0 65 0;
#X connect 65 0 63 1;
#X connect 66 0 73 0;
#X connect 67 0 66 0;
#X connect 68 0 67 0;
#X connect 69 0 63 0;
#X connect 70 0 69 0;
#X connect 71 0 69 1;
#X connect 72 0 71 0;
#X connect 73 0 72 0;
#X connect 74 0 70 0;
#X connect 75 0 74 0;
#X connect 76 0 68 0;
#X connect 77 0 75 0;
#X connect 77 0 76 0;
#X connect 82 0 85 0;
#X connect 83 0 84 0;
#X connect 84 0 86 0;
#X connect 85 0 83 0;
#X connect 86 0 94 0;
#X connect 87 0 95 0;
#X connect 88 0 82 0;
#X connect 91 0 90 0;
#X connect 91 0 90 1;
#X connect 91 0 52 0;
#X connect 92 0 93 0;
#X connect 93 0 91 1;
#X connect 94 0 91 0;
#X connect 95 0 96 0;
#X connect 96 0 86 1;
#X connect 97 0 88 0;
