#N canvas 1921 48 1920 997 12;
#X obj 19 21 tgl 15 0 empty empty empty 17 7 0 10 #fcfcfc #000000 #000000 0 1;
#X msg 19 41 \; pd dsp \$1;
#X obj 1713 10 loadbang;
#X floatatom 1723 103 5 0 0 0 - - - 0;
#X obj 1695 179 metro;
#X obj 1523 148 tgl 19 0 empty empty empty 0 -10 0 12 #fcfcfc #000000 #000000 0 1;
#X obj 1417 181 sel 0;
#X obj 1417 205 bng 19 250 50 0 empty empty empty 0 -10 0 12 #fcfcfc #000000 #000000;
#X obj 1512 244 bng 19 250 50 0 empty empty empty 0 -10 0 12 #fcfcfc #000000 #000000;
#X obj 1344 181 loadbang;
#X msg 1417 267 -1;
#X obj 1512 306 int 1;
#X obj 1582 335 + 1;
#X obj 1512 452 + 1;
#X floatatom 1512 477 5 0 0 0 - - - 0;
#X obj 992 543 sel 1;
#X obj 1062 543 sel 2;
#X obj 992 567 bng 19 250 50 0 empty empty empty 0 -10 0 12 #fcfcfc #000000 #000000;
#X obj 992 591 s One;
#X obj 1062 567 bng 19 250 50 0 empty empty empty 0 -10 0 12 #fcfcfc #000000 #000000;
#X obj 1134 567 bng 19 250 50 0 empty empty empty 0 -10 0 12 #fcfcfc #000000 #000000;
#X obj 1204 567 bng 19 250 50 0 empty empty empty 0 -10 0 12 #fcfcfc #000000 #000000;
#X obj 1274 567 bng 19 250 50 0 empty empty empty 0 -10 0 12 #fcfcfc #000000 #000000;
#X obj 1344 567 bng 19 250 50 0 empty empty empty 0 -10 0 12 #fcfcfc #000000 #000000;
#X obj 1134 543 sel 3;
#X obj 1204 543 sel 4;
#X obj 1274 543 sel 5;
#X obj 1344 543 sel 6;
#X obj 1062 591 s Two;
#X obj 1134 591 s Three;
#X obj 1204 591 s Four;
#X obj 1274 591 s Five;
#X obj 1344 591 s Six;
#X obj 282 136 receive snare;
#X obj 61 133 receive Kick;
#X obj 1414 567 bng 19 250 50 0 empty empty empty 0 -10 0 12 #fcfcfc #000000 #000000;
#X obj 1484 567 bng 19 250 50 0 empty empty empty 0 -10 0 12 #fcfcfc #000000 #000000;
#X obj 1414 543 sel 7;
#X obj 1415 592 s Seven;
#X obj 1484 543 sel 8;
#X obj 1484 591 s Eight;
#X obj 1562 567 bng 19 250 50 0 empty empty empty 0 -10 0 12 #fcfcfc #000000 #000000;
#X obj 1632 567 bng 19 250 50 0 empty empty empty 0 -10 0 12 #fcfcfc #000000 #000000;
#X obj 1704 567 bng 19 250 50 0 empty empty empty 0 -10 0 12 #fcfcfc #000000 #000000;
#X obj 1774 567 bng 19 250 50 0 empty empty empty 0 -10 0 12 #fcfcfc #000000 #000000;
#X obj 1844 567 bng 19 250 50 0 empty empty empty 0 -10 0 12 #fcfcfc #000000 #000000;
#X obj 1914 567 bng 19 250 50 0 empty empty empty 0 -10 0 12 #fcfcfc #000000 #000000;
#X obj 1984 567 bng 19 250 50 0 empty empty empty 0 -10 0 12 #fcfcfc #000000 #000000;
#X obj 2054 567 bng 19 250 50 0 empty empty empty 0 -10 0 12 #fcfcfc #000000 #000000;
#X obj 1562 543 sel 9;
#X obj 1632 543 sel 10;
#X obj 1704 543 sel 11;
#X obj 1774 543 sel 12;
#X obj 1844 543 sel 13;
#X obj 1914 543 sel 14;
#X obj 1984 543 sel 15;
#X obj 2054 543 sel 16;
#X obj 1562 591 s Nine;
#X obj 1632 591 s Ten;
#X obj 1704 591 s Eleven;
#X obj 1774 591 s Twelve;
#X obj 1844 591 s Thirteen;
#X obj 1914 591 s Fourteen;
#X obj 1985 592 s Fifteen;
#X obj 2054 591 s Sixteen;
#X obj 1512 428 % 16;
#X obj 873 633 receive One;
#X obj 872 735 spigot;
#X obj 805 716 tgl 19 0 empty empty empty 0 -10 0 12 #fcfcfc #000000 #000000 0 1;
#X obj 872 808 send Kick;
#X obj 2223 163 catch~ \$0-output;
#X obj 2223 187 /~ 5;
#X obj 2223 211 dac~ 1 2;
#X obj 61 186 line~;
#X obj 61 210 sqrt~;
#X obj 61 282 cos~;
#X obj 61 386 throw~ \$0-output;
#X obj 282 160 t b b;
#X msg 282 184 1 \, 0 100;
#X obj 282 208 line~;
#X obj 282 232 pow~ 4;
#X obj 282 280 +~;
#X obj 430 203 line~;
#X obj 430 227 pow~ 4;
#X msg 430 179 1 \, 0 200;
#X obj 518 195 noise~;
#X obj 518 219 hip~ 3000;
#X obj 518 243 bp~ 5000 2;
#X obj 311 332 throw~ \$0-output;
#X obj 282 304 lop~ 4000;
#X obj 674 190 line~;
#X obj 678 294 throw~ \$0-output;
#X obj 758 172 noise~;
#X floatatom 449 580 5 0 0 0 - - - 0;
#X obj 44 713 throw~ \$0-output;
#X obj 447 551 mtof;
#X floatatom 449 524 5 0 0 0 - - - 0;
#X obj 44 656 *~;
#X obj 44 587 vline~;
#X obj 447 606 phasor~;
#X obj 44 458 receive melody;
#X text 2117 120 This is our main out;
#X text 763 676 MUTE KICK;
#X text 2517 389 creation arguments are OSC address;
#X text 2519 350 set message to change OSC address;
#X text 2504 160 1 Set IP Address : network address;
#X text 2504 180 2 Set Ports (sending and listening);
#X text 2504 199 3 Set OSC Addresses (routing osc data;
#X text 2495 138 Key Settings;
#X floatatom 2374 337 5 0 0 0 - - - 0;
#N canvas 44 278 1427 538 oscReceive 0;
#X obj 58 178 netreceive -u -b;
#X msg 81 137 listen 0;
#X text 155 137 stop listening;
#X text 67 52 packets from network;
#X text 176 171 UDP packets \, binary output, f 13;
#X obj 48 308 print;
#X obj 48 266 oscparse;
#X text 153 108 listen on port 8000;
#X obj 180 263 oscparse;
#X obj 180 287 list trim;
#X text 244 261 Parse the OSC message;
#X obj 181 316 route unity;
#X msg 69 109 listen 8000;
#X obj 69 78 loadbang;
#X floatatom 17 446 5 0 0 0 - - - 0;
#X obj 16 423 route playseq;
#X obj 17 473 s oscplayseq;
#X floatatom 134 450 5 0 0 0 - - - 0;
#X floatatom 251 445 5 0 0 0 - - - 0;
#X floatatom 366 444 5 0 0 0 - - - 0;
#X obj 135 424 route kick;
#X obj 250 422 route melody;
#X obj 365 421 route himat;
#X obj 366 471 s oschimat;
#X obj 251 472 s oscmelody;
#X obj 136 474 s osckick;
#X floatatom 469 444 5 0 0 0 - - - 0;
#X floatatom 577 442 5 0 0 0 - - - 0;
#X floatatom 671 442 5 0 0 0 - - - 0;
#X floatatom 656 349 5 0 0 0 - - - 0;
#X obj 468 421 route snare;
#X obj 576 419 route snare2;
#X obj 577 469 s oscsnare2;
#X obj 655 326 route beep;
#X obj 656 376 s oscbeep;
#X obj 670 419 route incrBpm;
#X obj 671 469 s oscincrBpm;
#X floatatom 476 228 5 0 0 0 - - - 0;
#X obj 477 261 s oscresetBpm;
#X obj 476 198 route resetBpm;
#X obj 469 471 s oscsnare;
#X floatatom 614 218 5 0 0 0 - - - 0;
#X floatatom 719 218 5 0 0 0 - - - 0;
#X obj 718 195 route tempo;
#X obj 719 245 s osctempo;
#X floatatom 819 218 5 0 0 0 - - - 0;
#X obj 613 195 route score;
#X obj 614 245 s oscscore;
#X floatatom 914 218 5 0 0 0 - - - 0;
#X floatatom 1005 217 5 0 0 0 - - - 0;
#X obj 913 195 route loss;
#X obj 819 245 s oscpoint;
#X obj 914 245 s oscloss;
#X obj 818 195 route point;
#X floatatom 478 139 5 0 0 0 - - - 0;
#X obj 477 116 route pitch;
#X obj 478 166 s oscpitch;
#X obj 1004 194 route Victory;
#X obj 1005 244 s oscVictory;
#X floatatom 616 134 5 0 0 0 - - - 0;
#X obj 615 111 route resetPitch;
#X obj 616 161 s oscresetPitch;
#X connect 0 0 6 0;
#X connect 0 0 8 0;
#X connect 1 0 0 0;
#X connect 6 0 5 0;
#X connect 8 0 9 0;
#X connect 9 0 11 0;
#X connect 11 0 15 0;
#X connect 11 0 20 0;
#X connect 11 0 21 0;
#X connect 11 0 22 0;
#X connect 11 0 30 0;
#X connect 11 0 31 0;
#X connect 11 0 33 0;
#X connect 11 0 35 0;
#X connect 11 0 39 0;
#X connect 11 0 46 0;
#X connect 11 0 43 0;
#X connect 11 0 53 0;
#X connect 11 0 50 0;
#X connect 11 0 55 0;
#X connect 11 0 57 0;
#X connect 11 0 60 0;
#X connect 12 0 0 0;
#X connect 13 0 12 0;
#X connect 14 0 16 0;
#X connect 15 0 14 0;
#X connect 17 0 25 0;
#X connect 18 0 24 0;
#X connect 19 0 23 0;
#X connect 20 0 17 0;
#X connect 21 0 18 0;
#X connect 22 0 19 0;
#X connect 26 0 40 0;
#X connect 27 0 32 0;
#X connect 28 0 36 0;
#X connect 29 0 34 0;
#X connect 30 0 26 0;
#X connect 31 0 27 0;
#X connect 33 0 29 0;
#X connect 35 0 28 0;
#X connect 37 0 38 0;
#X connect 39 0 37 0;
#X connect 41 0 47 0;
#X connect 42 0 44 0;
#X connect 43 0 42 0;
#X connect 45 0 51 0;
#X connect 46 0 41 0;
#X connect 48 0 52 0;
#X connect 49 0 58 0;
#X connect 50 0 48 0;
#X connect 53 0 45 0;
#X connect 54 0 56 0;
#X connect 55 0 54 0;
#X connect 57 0 49 0;
#X connect 59 0 61 0;
#X connect 60 0 59 0;
#X restore 2387 254 pd oscReceive;
#X obj 2384 390 oscformat PD message;
#X msg 2416 351 set PD message;
#N canvas 727 97 450 300 oscSend 0;
#X msg 158 207 disconnect;
#X obj 61 253 netsend -u -b;
#X obj 59 55 list prepend send;
#X obj 59 80 list trim;
#X obj 59 29 r oscOut;
#X obj 147 108 loadbang;
#X msg 147 148 connect localhost 8000;
#X msg 150 175 connect 127.0.0.1 8000;
#X text 286 118 send to port 8000;
#X connect 0 0 1 0;
#X connect 2 0 3 0;
#X connect 3 0 1 0;
#X connect 4 0 2 0;
#X connect 5 0 6 0;
#X connect 6 0 1 0;
#X connect 7 0 1 0;
#X restore 2386 230 pd oscSend;
#X obj 2384 425 s oscOut;
#X obj 1375 97 r oscplayseq;
#X obj 660 697 r osckick;
#X text 1218 223 Ensure the sequence starts from 0, f 19;
#X obj -54 2102 r pattern;
#X obj -144 2127 receive One;
#X obj -144 2153 bng 19 250 50 0 empty empty empty 0 -10 0 12 #fcfcfc #000000 #000000;
#X obj -115 2319 spigot;
#X obj -112 2348 bng 19 250 50 0 empty empty empty 0 -10 0 12 #fcfcfc #000000 #000000;
#X obj -52 2239 tgl 19 0 empty empty empty 0 -10 0 12 #fcfcfc #000000 #000000 0 1;
#X obj 124 2101 r pattern;
#X obj 36 2156 bng 19 250 50 0 empty empty empty 0 -10 0 12 #fcfcfc #000000 #000000;
#X obj 45 2310 spigot;
#X obj 48 2338 bng 19 250 50 0 empty empty empty 0 -10 0 12 #fcfcfc #000000 #000000;
#X obj 313 2101 r pattern;
#X obj 204 2152 bng 19 250 50 0 empty empty empty 0 -10 0 12 #fcfcfc #000000 #000000;
#X obj 234 2251 spigot;
#X obj 241 2296 bng 19 250 50 0 empty empty empty 0 -10 0 12 #fcfcfc #000000 #000000;
#X obj 501 2101 r pattern;
#X obj 501 2129 random 2;
#X obj 401 2150 bng 19 250 50 0 empty empty empty 0 -10 0 12 #fcfcfc #000000 #000000;
#X obj 437 2214 spigot;
#X obj 440 2243 bng 19 250 50 0 empty empty empty 0 -10 0 12 #fcfcfc #000000 #000000;
#X obj 701 2100 r pattern;
#X obj 592 2151 bng 19 250 50 0 empty empty empty 0 -10 0 12 #fcfcfc #000000 #000000;
#X obj 628 2215 spigot;
#X obj 631 2244 bng 19 250 50 0 empty empty empty 0 -10 0 12 #fcfcfc #000000 #000000;
#X obj 894 2101 r pattern;
#X obj 785 2152 bng 19 250 50 0 empty empty empty 0 -10 0 12 #fcfcfc #000000 #000000;
#X obj 821 2216 spigot;
#X obj 824 2245 bng 19 250 50 0 empty empty empty 0 -10 0 12 #fcfcfc #000000 #000000;
#X obj 1090 2101 r pattern;
#X obj 983 2153 bng 19 250 50 0 empty empty empty 0 -10 0 12 #fcfcfc #000000 #000000;
#X obj 1019 2217 spigot;
#X obj 1022 2246 bng 19 250 50 0 empty empty empty 0 -10 0 12 #fcfcfc #000000 #000000;
#X obj 1290 2097 r pattern;
#X obj 1177 2153 bng 19 250 50 0 empty empty empty 0 -10 0 12 #fcfcfc #000000 #000000;
#X obj 1213 2217 spigot;
#X obj 1216 2246 bng 19 250 50 0 empty empty empty 0 -10 0 12 #fcfcfc #000000 #000000;
#X obj 1470 2096 r pattern;
#X obj 1361 2147 bng 19 250 50 0 empty empty empty 0 -10 0 12 #fcfcfc #000000 #000000;
#X obj 1397 2211 spigot;
#X obj 1399 2241 bng 19 250 50 0 empty empty empty 0 -10 0 12 #fcfcfc #000000 #000000;
#X obj 1641 2099 r pattern;
#X obj 1552 2150 bng 19 250 50 0 empty empty empty 0 -10 0 12 #fcfcfc #000000 #000000;
#X obj 1568 2214 spigot;
#X obj 1571 2243 bng 19 250 50 0 empty empty empty 0 -10 0 12 #fcfcfc #000000 #000000;
#X obj 1833 2100 r pattern;
#X obj 1724 2151 bng 19 250 50 0 empty empty empty 0 -10 0 12 #fcfcfc #000000 #000000;
#X obj 1760 2215 spigot;
#X obj 1763 2244 bng 19 250 50 0 empty empty empty 0 -10 0 12 #fcfcfc #000000 #000000;
#X obj 2027 2100 r pattern;
#X obj 1918 2151 bng 19 250 50 0 empty empty empty 0 -10 0 12 #fcfcfc #000000 #000000;
#X obj 1954 2215 spigot;
#X obj 1957 2244 bng 19 250 50 0 empty empty empty 0 -10 0 12 #fcfcfc #000000 #000000;
#X obj 2450 2102 r pattern;
#X obj 2318 2152 bng 19 250 50 0 empty empty empty 0 -10 0 12 #fcfcfc #000000 #000000;
#X obj 2354 2216 spigot;
#X obj 2357 2245 bng 19 250 50 0 empty empty empty 0 -10 0 12 #fcfcfc #000000 #000000;
#X obj 36 2128 receive Two;
#X obj 204 2126 receive Three;
#X obj 401 2124 receive Four;
#X obj 592 2125 receive Five;
#X obj 785 2126 receive Six;
#X obj 983 2127 receive Seven;
#X obj 1177 2127 receive Eight;
#X obj 1371 2121 receive Nine;
#X obj 1552 2124 receive Ten;
#X obj 1724 2125 receive Eleven;
#X obj 1918 2125 receive Twelve;
#X obj 2657 2105 r pattern;
#X obj 2525 2155 bng 19 250 50 0 empty empty empty 0 -10 0 12 #fcfcfc #000000 #000000;
#X obj 2561 2219 spigot;
#X obj 2564 2248 bng 19 250 50 0 empty empty empty 0 -10 0 12 #fcfcfc #000000 #000000;
#X obj 2859 2110 r pattern;
#X obj 2744 2163 bng 19 250 50 0 empty empty empty 0 -10 0 12 #fcfcfc #000000 #000000;
#X obj 2763 2224 spigot;
#X obj 2766 2253 bng 19 250 50 0 empty empty empty 0 -10 0 12 #fcfcfc #000000 #000000;
#X obj 2318 2126 receive Fourteen;
#X obj 2525 2129 receive Fifteen;
#X obj 2741 2133 receive Sixteen;
#X msg 3140 3075 0;
#X obj 2242 2101 r pattern;
#X obj 2116 2153 bng 19 250 50 0 empty empty empty 0 -10 0 12 #fcfcfc #000000 #000000;
#X obj 2152 2217 spigot;
#X obj 2155 2246 bng 19 250 50 0 empty empty empty 0 -10 0 12 #fcfcfc #000000 #000000;
#X obj 2116 2127 receive Thirteen;
#X obj 1405 317 % 32;
#X obj 1405 349 + 1;
#X obj 1407 410 sel 1;
#X obj 1407 437 bng 19 250 50 0 empty empty empty 0 -10 0 12 #fcfcfc #000000 #000000;
#X obj 1408 471 s pattern;
#X floatatom 1405 377 5 0 0 0 - - - 0;
#X floatatom -52 2168 5 0 0 0 - - - 0;
#X obj -50 2204 < 100;
#X obj 120 2243 tgl 19 0 empty empty empty 0 -10 0 12 #fcfcfc #000000 #000000 0 1;
#X floatatom 120 2172 5 0 0 0 - - - 0;
#X obj 313 2233 tgl 19 0 empty empty empty 0 -10 0 12 #fcfcfc #000000 #000000 0 1;
#X floatatom 313 2162 5 0 0 0 - - - 0;
#X obj 501 2210 tgl 19 0 empty empty empty 0 -10 0 12 #fcfcfc #000000 #000000 0 1;
#X floatatom 501 2155 5 0 0 0 - - - 0;
#X obj 700 2209 tgl 19 0 empty empty empty 0 -10 0 12 #fcfcfc #000000 #000000 0 1;
#X floatatom 700 2154 5 0 0 0 - - - 0;
#X obj 894 2210 tgl 19 0 empty empty empty 0 -10 0 12 #fcfcfc #000000 #000000 0 1;
#X floatatom 894 2155 5 0 0 0 - - - 0;
#X obj 1096 2218 tgl 19 0 empty empty empty 0 -10 0 12 #fcfcfc #000000 #000000 0 1;
#X floatatom 1096 2163 5 0 0 0 - - - 0;
#X obj 1289 2204 tgl 19 0 empty empty empty 0 -10 0 12 #fcfcfc #000000 #000000 0 1;
#X floatatom 1289 2149 5 0 0 0 - - - 0;
#X obj 1473 2208 tgl 19 0 empty empty empty 0 -10 0 12 #fcfcfc #000000 #000000 0 1;
#X floatatom 1473 2153 5 0 0 0 - - - 0;
#X obj 1642 2211 tgl 19 0 empty empty empty 0 -10 0 12 #fcfcfc #000000 #000000 0 1;
#X floatatom 1642 2156 5 0 0 0 - - - 0;
#X obj 1832 2212 tgl 19 0 empty empty empty 0 -10 0 12 #fcfcfc #000000 #000000 0 1;
#X floatatom 1832 2157 5 0 0 0 - - - 0;
#X obj 2026 2217 tgl 19 0 empty empty empty 0 -10 0 12 #fcfcfc #000000 #000000 0 1;
#X floatatom 2026 2162 5 0 0 0 - - - 0;
#X obj 2241 2218 tgl 19 0 empty empty empty 0 -10 0 12 #fcfcfc #000000 #000000 0 1;
#X floatatom 2241 2163 5 0 0 0 - - - 0;
#X obj 2451 2214 tgl 19 0 empty empty empty 0 -10 0 12 #fcfcfc #000000 #000000 0 1;
#X floatatom 2451 2159 5 0 0 0 - - - 0;
#X obj 2657 2218 tgl 19 0 empty empty empty 0 -10 0 12 #fcfcfc #000000 #000000 0 1;
#X floatatom 2657 2163 5 0 0 0 - - - 0;
#X obj 2858 2221 tgl 19 0 empty empty empty 0 -10 0 12 #fcfcfc #000000 #000000 0 1;
#X floatatom 2858 2166 5 0 0 0 - - - 0;
#X obj -54 2128 random 100;
#X obj 124 2127 random 100;
#X obj 313 2127 random 100;
#X obj 701 2126 random 100;
#X obj 894 2127 random 100;
#X obj 1091 2129 random 100;
#X obj 1290 2123 random 100;
#X obj 1470 2122 random 100;
#X obj 1641 2125 random 100;
#X obj 1833 2126 random 100;
#X obj 2027 2126 random 100;
#X obj 2242 2127 random 100;
#X obj 2444 2128 random 100;
#X obj 2657 2131 random 100;
#X obj 2859 2136 random 100;
#X obj 315 2198 < 5;
#X obj 1096 2189 < 30;
#X obj 2657 2189 < 10;
#X msg 1713 72 200;
#X obj 1314 2348 spigot;
#X obj 923 2050 tgl 19 0 empty empty empty 0 -10 0 12 #fcfcfc #000000 #000000 0 1;
#X text 911 2023 mute;
#X obj 22 912 phasor~;
#X obj 44 991 *~;
#X obj 42 1074 throw~ \$0-output;
#X msg 156 867 0.5 \, 1 5 \, 0.5 60 5 \, 0 \$1 65;
#X obj 156 909 vline~;
#X obj 154 966 *~;
#X obj 154 838 f 250;
#X floatatom 185 805 5 0 0 0 - - - 0;
#X obj 152 791 bng 19 250 50 0 empty empty empty 0 -10 0 12 #fcfcfc #000000 #000000;
#X floatatom 17 884 5 0 0 0 - - - 0;
#X obj 91 1162 loadbang;
#X floatatom 92 1230 5 0 0 0 - - - 0;
#X obj 73 1297 /;
#X obj 3 1162 loadbang;
#X msg 3 1190 60000;
#X floatatom 73 1325 5 0 0 0 - - - 0;
#X obj 73 1256 bng 15 250 50 0 empty empty empty 17 7 0 10 #fcfcfc #000000 #000000;
#X text 57 1130 BPM;
#X text 134 1228 < BPM;
#X obj 163 1163 r update;
#X obj 73 1361 send quarter_time;
#X obj -120 2478 sel 1;
#X obj -120 2508 bng 25 250 50 0 empty empty empty 17 7 0 10 #fcfcfc #00f8fc #000000;
#X floatatom 160 2433 5 0 0 0 - - - 0;
#X obj 301 2784 bng 25 250 50 0 empty empty empty 17 7 0 10 #fcfcfc #00f8fc #000000;
#X obj -121 2699 spigot;
#X obj -121 2726 bng 25 250 50 0 empty empty empty 17 7 0 10 #fcfcfc #00f8fc #000000;
#X obj 21 2507 bng 25 250 50 0 empty empty empty 17 7 0 10 #fcfcfc #00f8fc #000000;
#X obj 20 2698 spigot;
#X obj 20 2725 bng 25 250 50 0 empty empty empty 17 7 0 10 #fcfcfc #00f8fc #000000;
#X obj 160 2506 bng 25 250 50 0 empty empty empty 17 7 0 10 #fcfcfc #00f8fc #000000;
#X obj 159 2697 spigot;
#X obj 159 2724 bng 25 250 50 0 empty empty empty 17 7 0 10 #fcfcfc #00f8fc #000000;
#X obj 300 2505 bng 25 250 50 0 empty empty empty 17 7 0 10 #fcfcfc #00f8fc #000000;
#X obj 299 2696 spigot;
#X obj 299 2723 bng 25 250 50 0 empty empty empty 17 7 0 10 #fcfcfc #00f8fc #000000;
#X obj 443 2505 bng 25 250 50 0 empty empty empty 17 7 0 10 #fcfcfc #00f8fc #000000;
#X obj 442 2696 spigot;
#X obj 442 2723 bng 25 250 50 0 empty empty empty 17 7 0 10 #fcfcfc #00f8fc #000000;
#X obj 583 2504 bng 25 250 50 0 empty empty empty 17 7 0 10 #fcfcfc #00f8fc #000000;
#X obj 582 2695 spigot;
#X obj 582 2722 bng 25 250 50 0 empty empty empty 17 7 0 10 #fcfcfc #00f8fc #000000;
#X obj 723 2503 bng 25 250 50 0 empty empty empty 17 7 0 10 #fcfcfc #00f8fc #000000;
#X obj 722 2694 spigot;
#X obj 722 2721 bng 25 250 50 0 empty empty empty 17 7 0 10 #fcfcfc #00f8fc #000000;
#X obj 866 2502 bng 25 250 50 0 empty empty empty 17 7 0 10 #fcfcfc #00f8fc #000000;
#X obj 865 2693 spigot;
#X obj 865 2720 bng 25 250 50 0 empty empty empty 17 7 0 10 #fcfcfc #00f8fc #000000;
#X obj 21 2477 sel 2;
#X obj 160 2476 sel 3;
#X obj 300 2475 sel 4;
#X obj 443 2475 sel 5;
#X obj 583 2474 sel 6;
#X obj 723 2473 sel 7;
#X obj 866 2472 sel 8;
#X obj 1018 2501 bng 25 250 50 0 empty empty empty 17 7 0 10 #fcfcfc #00f8fc #000000;
#X obj 1017 2692 spigot;
#X obj 1017 2719 bng 25 250 50 0 empty empty empty 17 7 0 10 #fcfcfc #00f8fc #000000;
#X obj 1018 2471 sel 9;
#X obj 941 1560 + 1;
#X obj 940 1451 int 1;
#X obj 993 1452 + 1;
#X floatatom 940 1493 5 0 0 0 - - - 0;
#X msg 872 1438 -1;
#X text 818 1388 Reset;
#X obj 870 1412 bng 15 250 50 0 empty empty empty 17 7 0 10 #fcfcfc #000000 #000000;
#X floatatom 971 1327 5 0 0 0 - - - 0;
#X obj 868 1361 sel 0;
#X obj 639 1289 tgl 25 0 empty empty empty 17 7 0 10 #fcfcfc #000000 #000000 0 1;
#X obj 801 1362 loadbang;
#X obj 941 1528 % 3;
#X obj 971 1302 / 3;
#X floatatom 1108 1283 5 1 9 0 - - - 0;
#X obj 1108 1228 loadbang;
#X obj 1055 1338 del 1;
#X obj 1055 1375 s update;
#X floatatom 941 1584 5 0 0 0 - - - 0;
#X obj 971 1235 r quarter_time;
#X obj 1556 145 receive quarter_time;
#X obj 1525 213 metro;
#X floatatom 1557 181 5 0 0 0 - - - 0;
#X obj 1056 631 receive Three;
#X obj 1244 631 receive Five;
#X obj 1452 630 receive Seven;
#X obj 1668 630 receive Nine;
#X obj 1810 629 receive Eleven;
#X obj 1638 469 send beat_start;
#X obj 832 1278 receive beat_start;
#X obj 940 1406 bng 19 250 50 0 empty empty empty 0 -10 0 12 #fcfcfc #000000 #000000;
#X msg 919 1303 0;
#X obj 941 1611 spigot;
#X obj 939 1356 metro;
#X obj 15 820 loadbang;
#X obj 449 638 lop~ 400;
#X obj 995 1824 receive One;
#X obj 995 1848 bng 19 250 50 0 empty empty empty 0 -10 0 12 #fcfcfc #000000 #000000;
#X obj 1085 1848 bng 19 250 50 0 empty empty empty 0 -10 0 12 #fcfcfc #000000 #000000;
#X obj 1175 1848 bng 19 250 50 0 empty empty empty 0 -10 0 12 #fcfcfc #000000 #000000;
#X obj 1278 1848 bng 19 250 50 0 empty empty empty 0 -10 0 12 #fcfcfc #000000 #000000;
#X obj 1380 1850 bng 19 250 50 0 empty empty empty 0 -10 0 12 #fcfcfc #000000 #000000;
#X obj 1085 1824 receive Two;
#X obj 1175 1824 receive Three;
#X obj 1278 1824 receive Four;
#X obj 1378 1824 receive Five;
#X obj 1775 1848 bng 19 250 50 0 empty empty empty 0 -10 0 12 #fcfcfc #000000 #000000;
#X obj 1865 1848 bng 19 250 50 0 empty empty empty 0 -10 0 12 #fcfcfc #000000 #000000;
#X obj 1955 1848 bng 19 250 50 0 empty empty empty 0 -10 0 12 #fcfcfc #000000 #000000;
#X obj 2068 1848 bng 19 250 50 0 empty empty empty 0 -10 0 12 #fcfcfc #000000 #000000;
#X obj 2178 1848 bng 19 250 50 0 empty empty empty 0 -10 0 12 #fcfcfc #000000 #000000;
#X obj 2303 1847 bng 19 250 50 0 empty empty empty 0 -10 0 12 #fcfcfc #000000 #000000;
#X obj 2427 1846 bng 19 250 50 0 empty empty empty 0 -10 0 12 #fcfcfc #000000 #000000;
#X obj 2544 1845 bng 19 250 50 0 empty empty empty 0 -10 0 12 #fcfcfc #000000 #000000;
#X obj 1774 1824 receive Nine;
#X obj 1865 1824 receive Ten;
#X obj 1955 1824 receive Eleven;
#X obj 2068 1824 receive Twelve;
#X obj 2178 1824 receive Thirteen;
#X obj 2303 1823 receive Fourteen;
#X obj 2427 1822 receive Fifteen;
#X obj 2544 1821 receive Sixteen;
#X obj 995 1902 spigot;
#X obj 923 1935 tgl 19 1 empty empty empty 0 -10 0 12 #fcfcfc #000000 #000000 1 1;
#X obj 994 1949 send melody;
#X text 871 1854 MUTE MELODY;
#X obj 797 1916 r oscmelody;
#X obj 1480 1849 bng 19 250 50 0 empty empty empty 0 -10 0 12 #fcfcfc #000000 #000000;
#X obj 1588 1849 bng 19 250 50 0 empty empty empty 0 -10 0 12 #fcfcfc #000000 #000000;
#X obj 1681 1848 bng 19 250 50 0 empty empty empty 0 -10 0 12 #fcfcfc #000000 #000000;
#X obj 1480 1825 receive Six;
#X obj 1577 1825 receive Seven;
#X obj 1675 1823 receive Eight;
#X obj 282 360 r A;
#X obj 363 360 r B;
#X obj 460 358 r C;
#X obj 553 357 r D;
#X obj 652 359 r E;
#X obj 729 351 r F;
#X obj 803 352 r G;
#X obj 880 348 r H;
#X obj 1559 1947 s A;
#X obj 1615 1946 s B;
#X obj 1674 1947 s C;
#X obj 1727 1946 s D;
#X obj 1785 1947 s E;
#X obj 1837 1945 s F;
#X obj 1900 1946 s G;
#X obj 1953 1946 s H;
#X msg 44 524 0.3 200 \, 0.5 110 800 \, 0.2 30 810 \, 0.1 120 840 \, 0 500 880;
#X obj 61 258 -~ 0.5;
#X obj 61 306 lop~ 500;
#X obj 61 330 lop~ 2000;
#X msg 61 162 0 \, 1 300;
#X obj 1985 631 receive Thirteen;
#X obj 2121 632 receive Fifteen;
#X obj 61 234 *~ 15;
#X obj 341 238 osc~ 300;
#X msg 1108 1256 2;
#X obj -76 2517 r pattern;
#X obj -74 2654 tgl 19 0 empty empty empty 0 -10 0 12 #fcfcfc #000000 #000000 0 1;
#X floatatom -74 2583 5 0 0 0 - - - 0;
#X obj -72 2619 < 100;
#X obj -76 2543 random 100;
#X obj 68 2523 r pattern;
#X obj 70 2660 tgl 19 0 empty empty empty 0 -10 0 12 #fcfcfc #000000 #000000 0 1;
#X floatatom 70 2589 5 0 0 0 - - - 0;
#X obj 68 2549 random 100;
#X obj 204 2522 r pattern;
#X obj 206 2659 tgl 19 0 empty empty empty 0 -10 0 12 #fcfcfc #000000 #000000 0 1;
#X floatatom 206 2588 5 0 0 0 - - - 0;
#X obj 204 2548 random 100;
#X obj 345 2523 r pattern;
#X obj 347 2660 tgl 19 0 empty empty empty 0 -10 0 12 #fcfcfc #000000 #000000 0 1;
#X floatatom 347 2589 5 0 0 0 - - - 0;
#X obj 345 2549 random 100;
#X obj 491 2525 r pattern;
#X obj 493 2662 tgl 19 0 empty empty empty 0 -10 0 12 #fcfcfc #000000 #000000 0 1;
#X floatatom 493 2591 5 0 0 0 - - - 0;
#X obj 491 2551 random 100;
#X obj 628 2527 r pattern;
#X obj 630 2664 tgl 19 0 empty empty empty 0 -10 0 12 #fcfcfc #000000 #000000 0 1;
#X floatatom 630 2593 5 0 0 0 - - - 0;
#X obj 628 2553 random 100;
#X obj 767 2529 r pattern;
#X obj 769 2666 tgl 19 0 empty empty empty 0 -10 0 12 #fcfcfc #000000 #000000 0 1;
#X floatatom 769 2595 5 0 0 0 - - - 0;
#X obj 767 2555 random 100;
#X obj 911 2527 r pattern;
#X obj 913 2664 tgl 19 0 empty empty empty 0 -10 0 12 #fcfcfc #000000 #000000 0 1;
#X floatatom 913 2593 5 0 0 0 - - - 0;
#X obj 911 2553 random 100;
#X obj 1067 2523 r pattern;
#X obj 1069 2660 tgl 19 0 empty empty empty 0 -10 0 12 #fcfcfc #000000 #000000 0 1;
#X floatatom 1069 2589 5 0 0 0 - - - 0;
#X obj 1067 2549 random 100;
#X obj 208 2624 < 80;
#X obj 915 2629 < 30;
#X obj 1071 2625 < 30;
#X msg 91 1198 100;
#X msg 674 166 1.5 \, 0 100;
#X obj 722 890 r pattern;
#X obj 632 915 receive One;
#X obj 632 941 bng 19 250 50 0 empty empty empty 0 -10 0 12 #fcfcfc #000000 #000000;
#X obj 661 1107 spigot;
#X obj 664 1136 bng 19 250 50 0 empty empty empty 0 -10 0 12 #fcfcfc #000000 #000000;
#X obj 724 1027 tgl 19 0 empty empty empty 0 -10 0 12 #fcfcfc #000000 #000000 0 1;
#X obj 900 889 r pattern;
#X obj 812 944 bng 19 250 50 0 empty empty empty 0 -10 0 12 #fcfcfc #000000 #000000;
#X obj 821 1098 spigot;
#X obj 824 1126 bng 19 250 50 0 empty empty empty 0 -10 0 12 #fcfcfc #000000 #000000;
#X obj 1089 889 r pattern;
#X obj 980 940 bng 19 250 50 0 empty empty empty 0 -10 0 12 #fcfcfc #000000 #000000;
#X obj 1010 1039 spigot;
#X obj 1017 1084 bng 19 250 50 0 empty empty empty 0 -10 0 12 #fcfcfc #000000 #000000;
#X obj 1277 889 r pattern;
#X obj 1277 917 random 2;
#X obj 1177 938 bng 19 250 50 0 empty empty empty 0 -10 0 12 #fcfcfc #000000 #000000;
#X obj 1213 1002 spigot;
#X obj 1216 1031 bng 19 250 50 0 empty empty empty 0 -10 0 12 #fcfcfc #000000 #000000;
#X obj 1477 888 r pattern;
#X obj 1368 939 bng 19 250 50 0 empty empty empty 0 -10 0 12 #fcfcfc #000000 #000000;
#X obj 1404 1003 spigot;
#X obj 1407 1032 bng 19 250 50 0 empty empty empty 0 -10 0 12 #fcfcfc #000000 #000000;
#X obj 1670 889 r pattern;
#X obj 1561 940 bng 19 250 50 0 empty empty empty 0 -10 0 12 #fcfcfc #000000 #000000;
#X obj 1597 1004 spigot;
#X obj 1600 1033 bng 19 250 50 0 empty empty empty 0 -10 0 12 #fcfcfc #000000 #000000;
#X obj 1868 890 r pattern;
#X obj 1759 941 bng 19 250 50 0 empty empty empty 0 -10 0 12 #fcfcfc #000000 #000000;
#X obj 1795 1005 spigot;
#X obj 1798 1034 bng 19 250 50 0 empty empty empty 0 -10 0 12 #fcfcfc #000000 #000000;
#X obj 2062 890 r pattern;
#X obj 1953 941 bng 19 250 50 0 empty empty empty 0 -10 0 12 #fcfcfc #000000 #000000;
#X obj 1989 1005 spigot;
#X obj 1992 1034 bng 19 250 50 0 empty empty empty 0 -10 0 12 #fcfcfc #000000 #000000;
#X obj 2242 889 r pattern;
#X obj 2133 940 bng 19 250 50 0 empty empty empty 0 -10 0 12 #fcfcfc #000000 #000000;
#X obj 2169 1004 spigot;
#X obj 2171 1034 bng 19 250 50 0 empty empty empty 0 -10 0 12 #fcfcfc #000000 #000000;
#X obj 812 916 receive Two;
#X obj 980 914 receive Three;
#X obj 1177 912 receive Four;
#X obj 1368 913 receive Five;
#X obj 1561 914 receive Six;
#X obj 1759 915 receive Seven;
#X obj 1953 915 receive Eight;
#X obj 2143 914 receive Nine;
#X floatatom 724 956 5 0 0 0 - - - 0;
#X obj 896 1031 tgl 19 0 empty empty empty 0 -10 0 12 #fcfcfc #000000 #000000 0 1;
#X floatatom 896 960 5 0 0 0 - - - 0;
#X obj 1089 1021 tgl 19 0 empty empty empty 0 -10 0 12 #fcfcfc #000000 #000000 0 1;
#X floatatom 1089 950 5 0 0 0 - - - 0;
#X obj 1277 998 tgl 19 0 empty empty empty 0 -10 0 12 #fcfcfc #000000 #000000 0 1;
#X floatatom 1277 943 5 0 0 0 - - - 0;
#X obj 1476 997 tgl 19 0 empty empty empty 0 -10 0 12 #fcfcfc #000000 #000000 0 1;
#X floatatom 1476 942 5 0 0 0 - - - 0;
#X obj 1670 998 tgl 19 0 empty empty empty 0 -10 0 12 #fcfcfc #000000 #000000 0 1;
#X floatatom 1670 943 5 0 0 0 - - - 0;
#X obj 1872 1006 tgl 19 0 empty empty empty 0 -10 0 12 #fcfcfc #000000 #000000 0 1;
#X floatatom 1872 951 5 0 0 0 - - - 0;
#X obj 2061 997 tgl 19 0 empty empty empty 0 -10 0 12 #fcfcfc #000000 #000000 0 1;
#X floatatom 2061 942 5 0 0 0 - - - 0;
#X obj 2245 1001 tgl 19 0 empty empty empty 0 -10 0 12 #fcfcfc #000000 #000000 0 1;
#X floatatom 2245 946 5 0 0 0 - - - 0;
#X obj 722 916 random 100;
#X obj 900 915 random 100;
#X obj 1089 915 random 100;
#X obj 1477 914 random 100;
#X obj 1670 915 random 100;
#X obj 1867 917 random 100;
#X obj 2062 916 random 100;
#X obj 2242 915 random 100;
#X obj 2082 1097 spigot;
#X obj 607 1037 tgl 19 0 empty empty empty 0 -10 0 12 #fcfcfc #000000 #000000 0 1;
#X obj 2420 889 r pattern;
#X obj 2331 941 bng 19 250 50 0 empty empty empty 0 -10 0 12 #fcfcfc #000000 #000000;
#X obj 2349 1003 spigot;
#X obj 2352 1032 bng 19 250 50 0 empty empty empty 0 -10 0 12 #fcfcfc #000000 #000000;
#X obj 2616 888 r pattern;
#X obj 2507 939 bng 19 250 50 0 empty empty empty 0 -10 0 12 #fcfcfc #000000 #000000;
#X obj 2543 1003 spigot;
#X obj 2546 1032 bng 19 250 50 0 empty empty empty 0 -10 0 12 #fcfcfc #000000 #000000;
#X obj 2810 888 r pattern;
#X obj 2701 939 bng 19 250 50 0 empty empty empty 0 -10 0 12 #fcfcfc #000000 #000000;
#X obj 2737 1003 spigot;
#X obj 2740 1032 bng 19 250 50 0 empty empty empty 0 -10 0 12 #fcfcfc #000000 #000000;
#X obj 3234 890 r pattern;
#X obj 3101 940 bng 19 250 50 0 empty empty empty 0 -10 0 12 #fcfcfc #000000 #000000;
#X obj 3137 1004 spigot;
#X obj 3140 1033 bng 19 250 50 0 empty empty empty 0 -10 0 12 #fcfcfc #000000 #000000;
#X obj 2331 915 receive Ten;
#X obj 2507 913 receive Eleven;
#X obj 2701 913 receive Twelve;
#X obj 3434 888 r pattern;
#X obj 3308 943 bng 19 250 50 0 empty empty empty 0 -10 0 12 #fcfcfc #000000 #000000;
#X obj 3344 1007 spigot;
#X obj 3347 1036 bng 19 250 50 0 empty empty empty 0 -10 0 12 #fcfcfc #000000 #000000;
#X obj 3632 889 r pattern;
#X obj 3521 946 bng 19 250 50 0 empty empty empty 0 -10 0 12 #fcfcfc #000000 #000000;
#X obj 3540 1007 spigot;
#X obj 3543 1036 bng 19 250 50 0 empty empty empty 0 -10 0 12 #fcfcfc #000000 #000000;
#X obj 3101 914 receive Fourteen;
#X obj 3308 917 receive Fifteen;
#X obj 3518 916 receive Sixteen;
#X obj 3025 889 r pattern;
#X obj 2899 941 bng 19 250 50 0 empty empty empty 0 -10 0 12 #fcfcfc #000000 #000000;
#X obj 2935 1005 spigot;
#X obj 2938 1034 bng 19 250 50 0 empty empty empty 0 -10 0 12 #fcfcfc #000000 #000000;
#X obj 2899 915 receive Thirteen;
#X obj 2421 1001 tgl 19 0 empty empty empty 0 -10 0 12 #fcfcfc #000000 #000000 0 1;
#X floatatom 2421 946 5 0 0 0 - - - 0;
#X obj 2615 1000 tgl 19 0 empty empty empty 0 -10 0 12 #fcfcfc #000000 #000000 0 1;
#X floatatom 2615 945 5 0 0 0 - - - 0;
#X obj 2809 1005 tgl 19 0 empty empty empty 0 -10 0 12 #fcfcfc #000000 #000000 0 1;
#X floatatom 2809 950 5 0 0 0 - - - 0;
#X obj 3024 1006 tgl 19 0 empty empty empty 0 -10 0 12 #fcfcfc #000000 #000000 0 1;
#X floatatom 3024 951 5 0 0 0 - - - 0;
#X obj 3234 1002 tgl 19 0 empty empty empty 0 -10 0 12 #fcfcfc #000000 #000000 0 1;
#X floatatom 3234 947 5 0 0 0 - - - 0;
#X obj 3434 1001 tgl 19 0 empty empty empty 0 -10 0 12 #fcfcfc #000000 #000000 0 1;
#X floatatom 3434 946 5 0 0 0 - - - 0;
#X obj 3631 1000 tgl 19 0 empty empty empty 0 -10 0 12 #fcfcfc #000000 #000000 0 1;
#X floatatom 3631 945 5 0 0 0 - - - 0;
#X obj 2420 915 random 100;
#X obj 2616 914 random 100;
#X obj 2810 914 random 100;
#X obj 3025 915 random 100;
#X obj 3227 916 random 100;
#X obj 3434 914 random 100;
#X obj 3632 915 random 100;
#X obj 726 992 < 1;
#X obj 2245 972 < 20;
#X obj 3631 971 < 50;
#X obj 1091 986 < 30;
#X obj 1476 968 < 30;
#X obj 1872 977 < 30;
#X obj 2421 972 < 70;
#X obj 2615 971 < 30;
#X obj 3024 977 < 30;
#X obj 3234 973 < 70;
#X obj 3434 972 < 30;
#X floatatom 887 433 5 0 0 0 - - - 0;
#X floatatom 886 484 5 0 0 0 - - - 0;
#X floatatom 650 437 5 0 0 0 - - - 0;
#X floatatom 649 488 5 0 0 0 - - - 0;
#X floatatom 286 427 5 0 0 0 - - - 0;
#X floatatom 285 478 5 0 0 0 - - - 0;
#X obj 758 196 hip~ 12000;
#X obj 72 2625 < 20;
#X obj 349 2625 < 20;
#X obj 495 2627 < 20;
#X obj 887 456 + 70;
#X floatatom 367 427 5 0 0 0 - - - 0;
#X floatatom 366 478 5 0 0 0 - - - 0;
#X obj 367 450 + 70;
#X floatatom 805 433 5 0 0 0 - - - 0;
#X floatatom 804 484 5 0 0 0 - - - 0;
#X floatatom 726 435 5 0 0 0 - - - 0;
#X floatatom 725 486 5 0 0 0 - - - 0;
#X floatatom 444 429 5 0 0 0 - - - 0;
#X floatatom 443 480 5 0 0 0 - - - 0;
#X floatatom 540 430 5 0 0 0 - - - 0;
#X floatatom 539 481 5 0 0 0 - - - 0;
#X obj 540 453 + 70;
#X obj 942 1642 send hihat_rhythm;
#X obj 160 2404 r hihat_rhythm;
#X obj 1108 1312 s tup_division;
#X obj 984 1508 r tup_division;
#X text 1152 1285 tuplet division;
#X obj 122 2208 < 100;
#X obj 501 2181 < 80;
#X obj 700 2180 < 20;
#X obj 894 2181 < 90;
#X obj 1289 2175 < 70;
#X obj 1473 2179 < 50;
#X obj 1642 2182 < 85;
#X obj 1832 2183 < 30;
#X obj 2026 2188 < 75;
#X obj 2241 2189 < 35;
#X obj 2451 2185 < 65;
#X obj 2858 2192 < 80;
#X obj 1315 2380 send beep;
#X obj 152 758 receive beep;
#X text 690 1257 MUTE HIMAT;
#X obj 510 1017 r oscsnare;
#X obj 832 2030 r oscbeep;
#X obj 285 400 random 3;
#X obj 366 400 random 3;
#X obj 443 402 random 3;
#X obj 539 403 random 3;
#X obj 649 410 random 3;
#X obj 725 408 random 3;
#X obj 804 406 random 3;
#X obj 886 406 random 3;
#X obj 286 450 + 68;
#X obj 444 452 + 68;
#X obj 650 460 + 68;
#X obj 282 256 *~;
#X obj 429 261 *~;
#X obj 862 146 t b b;
#X msg 862 170 1 \, 0 100;
#X obj 862 194 line~;
#X obj 862 218 pow~ 4;
#X obj 862 266 +~;
#X obj 1010 189 line~;
#X obj 1010 213 pow~ 4;
#X msg 1010 165 1 \, 0 200;
#X obj 1098 181 noise~;
#X obj 1098 205 hip~ 3000;
#X obj 1098 229 bp~ 5000 2;
#X obj 891 318 throw~ \$0-output;
#X obj 921 224 osc~ 300;
#X obj 862 242 *~;
#X obj 862 122 receive snare2;
#X obj 2082 1135 send snare;
#X obj 1408 1256 r pattern;
#X obj 1318 1307 bng 19 250 50 0 empty empty empty 0 -10 0 12 #fcfcfc #000000 #000000;
#X obj 1347 1473 spigot;
#X obj 1350 1502 bng 19 250 50 0 empty empty empty 0 -10 0 12 #fcfcfc #000000 #000000;
#X obj 1410 1393 tgl 19 0 empty empty empty 0 -10 0 12 #fcfcfc #000000 #000000 0 1;
#X obj 1586 1255 r pattern;
#X obj 1498 1310 bng 19 250 50 0 empty empty empty 0 -10 0 12 #fcfcfc #000000 #000000;
#X obj 1507 1464 spigot;
#X obj 1510 1492 bng 19 250 50 0 empty empty empty 0 -10 0 12 #fcfcfc #000000 #000000;
#X obj 1775 1255 r pattern;
#X obj 1666 1306 bng 19 250 50 0 empty empty empty 0 -10 0 12 #fcfcfc #000000 #000000;
#X obj 1696 1405 spigot;
#X obj 1703 1450 bng 19 250 50 0 empty empty empty 0 -10 0 12 #fcfcfc #000000 #000000;
#X obj 1963 1255 r pattern;
#X obj 1963 1283 random 2;
#X obj 1863 1304 bng 19 250 50 0 empty empty empty 0 -10 0 12 #fcfcfc #000000 #000000;
#X obj 1899 1368 spigot;
#X obj 1902 1397 bng 19 250 50 0 empty empty empty 0 -10 0 12 #fcfcfc #000000 #000000;
#X obj 2173 1254 r pattern;
#X obj 2054 1305 bng 19 250 50 0 empty empty empty 0 -10 0 12 #fcfcfc #000000 #000000;
#X obj 2090 1369 spigot;
#X obj 2093 1398 bng 19 250 50 0 empty empty empty 0 -10 0 12 #fcfcfc #000000 #000000;
#X obj 2367 1255 r pattern;
#X obj 2247 1306 bng 19 250 50 0 empty empty empty 0 -10 0 12 #fcfcfc #000000 #000000;
#X obj 2283 1370 spigot;
#X obj 2286 1399 bng 19 250 50 0 empty empty empty 0 -10 0 12 #fcfcfc #000000 #000000;
#X obj 2562 1258 r pattern;
#X obj 2445 1307 bng 19 250 50 0 empty empty empty 0 -10 0 12 #fcfcfc #000000 #000000;
#X obj 2481 1371 spigot;
#X obj 2484 1400 bng 19 250 50 0 empty empty empty 0 -10 0 12 #fcfcfc #000000 #000000;
#X obj 2770 1256 r pattern;
#X obj 2639 1307 bng 19 250 50 0 empty empty empty 0 -10 0 12 #fcfcfc #000000 #000000;
#X obj 2675 1371 spigot;
#X obj 2678 1400 bng 19 250 50 0 empty empty empty 0 -10 0 12 #fcfcfc #000000 #000000;
#X floatatom 1410 1322 5 0 0 0 - - - 0;
#X obj 1582 1397 tgl 19 0 empty empty empty 0 -10 0 12 #fcfcfc #000000 #000000 0 1;
#X floatatom 1582 1326 5 0 0 0 - - - 0;
#X obj 1775 1387 tgl 19 0 empty empty empty 0 -10 0 12 #fcfcfc #000000 #000000 0 1;
#X floatatom 1775 1316 5 0 0 0 - - - 0;
#X obj 1963 1364 tgl 19 0 empty empty empty 0 -10 0 12 #fcfcfc #000000 #000000 0 1;
#X floatatom 1963 1309 5 0 0 0 - - - 0;
#X obj 2172 1363 tgl 19 0 empty empty empty 0 -10 0 12 #fcfcfc #000000 #000000 0 1;
#X floatatom 2172 1308 5 0 0 0 - - - 0;
#X obj 2367 1364 tgl 19 0 empty empty empty 0 -10 0 12 #fcfcfc #000000 #000000 0 1;
#X floatatom 2367 1309 5 0 0 0 - - - 0;
#X obj 2566 1374 tgl 19 0 empty empty empty 0 -10 0 12 #fcfcfc #000000 #000000 0 1;
#X floatatom 2566 1319 5 0 0 0 - - - 0;
#X obj 2769 1363 tgl 19 0 empty empty empty 0 -10 0 12 #fcfcfc #000000 #000000 0 1;
#X floatatom 2769 1308 5 0 0 0 - - - 0;
#X obj 1408 1282 random 100;
#X obj 1586 1281 random 100;
#X obj 1775 1281 random 100;
#X obj 2173 1280 random 100;
#X obj 2367 1281 random 100;
#X obj 2561 1285 random 100;
#X obj 2770 1282 random 100;
#X obj 1967 1463 spigot;
#X obj 1293 1403 tgl 19 0 empty empty empty 0 -10 0 12 #fcfcfc #000000 #000000 0 1;
#X obj 1967 1501 send snare2;
#X obj 1196 1383 r oscsnare2;
#X obj 1584 1362 < 20;
#X obj 1777 1352 < 80;
#X obj 1963 1335 < 30;
#X obj 2367 1335 < 50;
#X obj 2566 1345 < 10;
#X obj 2769 1334 < 100;
#X obj 1412 1358 < 100;
#X obj 2172 1334 < 100;
#X obj 1318 1281 receive Nine;
#X obj 1498 1282 receive Ten;
#X obj 1666 1280 receive Eleven;
#X obj 1863 1278 receive Twelve;
#X obj 2054 1279 receive Thirteen;
#X obj 2247 1280 receive Fourteen;
#X obj 2445 1281 receive Fifteen;
#X obj 2639 1281 receive Sixteen;
#X obj 675 238 *~;
#X obj 673 214 pow~ 2;
#X obj 758 220 hip~ 4000;
#X obj 675 266 *~ 0.5;
#X obj 862 289 lop~ 2000;
#X obj 1009 247 *~ 0.2;
#X obj 805 456 + 68;
#X obj 726 458 + 66;
#X obj 632 2629 < 20;
#X obj 770 2632 < 50;
#X obj 27 1449 bng 19 250 50 0 empty empty empty 0 -10 0 12 #fcfcfc #000000 #000000;
#X obj 34 1608 s update;
#X floatatom 33 1556 5 0 0 0 - - - 0;
#X obj 30 1484 f 100;
#X obj 39 1514 + 10;
#X msg 129 1538 100;
#X obj 1234 1163 r pattern;
#X floatatom 1234 1218 5 0 0 0 - - - 0;
#X obj 1174 1260 + 1, f 4;
#X obj 26 1414 r oscincrBpm;
#X obj 129 1490 r oscresetBpm;
#X text 1763 34 Sequencer, f 67;
#X obj 898 996 < 100;
#X obj 300 2821 send hihat;
#X obj 674 142 receive hihat;
#X obj 2373 308 loadbang;
#X obj 1233 1193 random 4, f 9;
#X obj 43 1047 lop~ 2000;
#X obj 23 948 expr~ $v1 > 0.5;
#X msg 16 848 19;
#X obj 43 1020 *~ 2.5;
#X obj 1277 969 < 85;
#X obj 1670 969 < 85;
#X obj 2061 968 < 90;
#X obj 2809 976 < 90;
#X obj 565 1270 r oschihat;
#X text 3447 30 SFX;
#X text 3640 394 Sound which will increase in pitch when more points are scored;
#X obj 3651 103 t b b;
#X obj 3651 157 line~;
#X obj 3651 181 pow~ 4;
#X msg 3651 133 1 \, 0 200;
#X obj 3651 215 *~;
#X obj 3739 149 noise~;
#X obj 3651 74 bng 19 250 50 0 empty empty empty 0 -10 0 12 #fcfcfc #000000 #000000;
#X text 3677 75 <- hit to test;
#X obj 3642 357 dac~;
#X obj 3650 289 *~;
#X obj 3832 101 vsl 19 162 0 1 0 0 empty empty Hit\ Object\ Volume -40 -9 0 12 #fcfcfc #000000 #000000 0 1;
#X floatatom 3832 271 5 0 0 0 - - - 0;
#X obj 3651 246 lop~ 2000;
#X obj 3739 173 hip~ 1000;
#X obj 3739 197 bp~ 2000 3;
#X obj 3637 811 dac~;
#X obj 3645 743 *~;
#X obj 3938 555 vsl 19 162 0 1 0 0 empty empty Scored\ Point\ Volume -40 -9 0 12 #fcfcfc #000000 #000000 0 1;
#X floatatom 3938 725 5 0 0 0 - - - 0;
#X floatatom 3770 614 5 0 0 0 - - - 0;
#X obj 3770 587 mtof;
#X floatatom 3770 556 5 0 0 0 - - - 0;
#X obj 3645 705 *~;
#X obj 3644 625 vline~;
#X obj 3770 687 lop~ 1000;
#X obj 3770 663 bp~ 5000;
#X obj 3770 639 phasor~;
#X msg 3644 556 0.8 \, 0 50 75;
#X obj 3644 523 bng 19 250 50 0 empty empty empty 0 -10 0 12 #fcfcfc #000000 #000000;
#X obj 3644 479 r oscpoint;
#X text 3670 524 <- hit to test;
#X obj 3770 415 r oscpitch;
#X obj 3770 453 bng 19 250 50 0 empty empty empty 0 -10 0 12 #fcfcfc #000000 #000000;
#X obj 3858 493 bng 19 250 50 0 empty empty empty 0 -10 0 12 #fcfcfc #000000 #000000;
#X msg 3858 537 50;
#X obj 3770 486 int 50;
#X obj 3858 452 r oscresetPitch;
#X obj 3809 517 + 2;
#X obj 4286 491 bng 19 250 50 0 empty empty empty 0 -10 0 12 #fcfcfc #000000 #000000;
#X msg 4286 519 1 25 \, 0.25 50 75 \, 0 50 150;
#X obj 4286 548 vline~;
#X obj 4151 271 bng 19 250 50 0 empty empty empty 0 -10 0 12 #fcfcfc #000000 #000000;
#X obj 4151 302 int 1;
#X obj 4221 331 + 1;
#X floatatom 4151 336 5 0 0 0 - - - 0;
#X obj 4151 392 + 1;
#X floatatom 4151 420 5 0 0 0 - - - 0;
#X obj 4081 468 sel 1;
#X obj 4151 468 sel 2;
#X obj 4081 492 bng 19 250 50 0 empty empty empty 0 -10 0 12 #fcfcfc #000000 #000000;
#X obj 4151 492 bng 19 250 50 0 empty empty empty 0 -10 0 12 #fcfcfc #000000 #000000;
#X obj 4227 491 bng 19 250 50 0 empty empty empty 0 -10 0 12 #fcfcfc #000000 #000000;
#X obj 4227 467 sel 3;
#X obj 4151 364 % 3;
#X obj 4151 573 osc~ 1000;
#X obj 4151 233 metro;
#X obj 4151 209 tgl 19 0 empty empty empty 0 -10 0 12 #fcfcfc #000000 #000000 0 1;
#X obj 4142 707 dac~;
#X obj 4152 654 *~;
#X obj 4301 610 vsl 19 162 0 1 0 0 empty empty Victory\ Volume -40 -9 0 12 #fcfcfc #000000 #000000 0 1;
#X floatatom 4301 780 5 0 0 0 - - - 0;
#X obj 4152 612 *~;
#X msg 4183 165 90;
#X msg 4080 527 900;
#X msg 4151 527 1000;
#X msg 4227 527 1200;
#X text 3650 19 Loss sound (when ball hits object);
#X obj 4151 128 r oscVictory;
#X text 4150 99 Win sound!;
#X floatatom 4183 198 5 0 0 0 - - - 0;
#X obj 3651 50 r oscloss;
#X connect 0 0 1 0;
#X connect 2 0 257 0;
#X connect 3 0 4 1;
#X connect 5 0 6 0;
#X connect 5 0 340 0;
#X connect 6 0 7 0;
#X connect 7 0 10 0;
#X connect 8 0 11 0;
#X connect 9 0 7 0;
#X connect 10 0 11 0;
#X connect 11 0 12 0;
#X connect 11 0 65 0;
#X connect 11 0 201 0;
#X connect 12 0 11 1;
#X connect 13 0 14 0;
#X connect 14 0 15 0;
#X connect 14 0 16 0;
#X connect 14 0 24 0;
#X connect 14 0 25 0;
#X connect 14 0 26 0;
#X connect 14 0 27 0;
#X connect 14 0 37 0;
#X connect 14 0 39 0;
#X connect 14 0 49 0;
#X connect 14 0 50 0;
#X connect 14 0 51 0;
#X connect 14 0 52 0;
#X connect 14 0 53 0;
#X connect 14 0 54 0;
#X connect 14 0 55 0;
#X connect 14 0 56 0;
#X connect 14 0 347 0;
#X connect 15 0 17 0;
#X connect 16 0 19 0;
#X connect 17 0 18 0;
#X connect 19 0 28 0;
#X connect 20 0 29 0;
#X connect 21 0 30 0;
#X connect 22 0 31 0;
#X connect 23 0 32 0;
#X connect 24 0 20 0;
#X connect 25 0 21 0;
#X connect 26 0 22 0;
#X connect 27 0 23 0;
#X connect 33 0 77 0;
#X connect 34 0 412 0;
#X connect 35 0 38 0;
#X connect 36 0 40 0;
#X connect 37 0 35 0;
#X connect 39 0 36 0;
#X connect 41 0 57 0;
#X connect 42 0 58 0;
#X connect 43 0 59 0;
#X connect 44 0 60 0;
#X connect 45 0 61 0;
#X connect 46 0 62 0;
#X connect 47 0 63 0;
#X connect 48 0 64 0;
#X connect 49 0 41 0;
#X connect 50 0 42 0;
#X connect 51 0 43 0;
#X connect 52 0 44 0;
#X connect 53 0 45 0;
#X connect 54 0 46 0;
#X connect 55 0 47 0;
#X connect 56 0 48 0;
#X connect 65 0 13 0;
#X connect 66 0 67 0;
#X connect 67 0 69 0;
#X connect 68 0 67 1;
#X connect 70 0 71 0;
#X connect 71 0 72 0;
#X connect 71 0 72 1;
#X connect 73 0 74 0;
#X connect 74 0 415 0;
#X connect 75 0 410 0;
#X connect 77 0 78 0;
#X connect 77 1 84 0;
#X connect 78 0 79 0;
#X connect 79 0 80 0;
#X connect 80 0 657 0;
#X connect 81 0 89 0;
#X connect 82 0 83 0;
#X connect 83 0 658 0;
#X connect 84 0 82 0;
#X connect 85 0 86 0;
#X connect 86 0 87 0;
#X connect 87 0 658 1;
#X connect 89 0 88 0;
#X connect 90 0 752 0;
#X connect 92 0 607 0;
#X connect 93 0 99 0;
#X connect 95 0 93 0;
#X connect 96 0 95 0;
#X connect 97 0 94 0;
#X connect 98 0 97 0;
#X connect 99 0 354 0;
#X connect 100 0 408 0;
#X connect 109 0 111 0;
#X connect 111 0 114 0;
#X connect 112 0 111 0;
#X connect 115 0 5 0;
#X connect 116 0 68 0;
#X connect 118 0 239 0;
#X connect 119 0 120 0;
#X connect 120 0 121 0;
#X connect 121 0 122 0;
#X connect 122 0 258 0;
#X connect 123 0 121 1;
#X connect 124 0 240 0;
#X connect 125 0 126 0;
#X connect 126 0 127 0;
#X connect 127 0 258 0;
#X connect 128 0 241 0;
#X connect 129 0 130 0;
#X connect 130 0 131 0;
#X connect 131 0 258 0;
#X connect 132 0 133 0;
#X connect 133 0 214 0;
#X connect 134 0 135 0;
#X connect 135 0 136 0;
#X connect 136 0 258 0;
#X connect 137 0 242 0;
#X connect 138 0 139 0;
#X connect 139 0 140 0;
#X connect 140 0 258 0;
#X connect 141 0 243 0;
#X connect 142 0 143 0;
#X connect 143 0 144 0;
#X connect 144 0 258 0;
#X connect 145 0 244 0;
#X connect 146 0 147 0;
#X connect 147 0 148 0;
#X connect 148 0 258 0;
#X connect 149 0 245 0;
#X connect 150 0 151 0;
#X connect 151 0 152 0;
#X connect 152 0 258 0;
#X connect 153 0 246 0;
#X connect 154 0 155 0;
#X connect 155 0 156 0;
#X connect 156 0 258 0;
#X connect 157 0 247 0;
#X connect 158 0 159 0;
#X connect 159 0 160 0;
#X connect 160 0 258 0;
#X connect 161 0 248 0;
#X connect 162 0 163 0;
#X connect 163 0 164 0;
#X connect 164 0 258 0;
#X connect 165 0 249 0;
#X connect 166 0 167 0;
#X connect 167 0 168 0;
#X connect 168 0 258 0;
#X connect 169 0 251 0;
#X connect 170 0 171 0;
#X connect 171 0 172 0;
#X connect 172 0 258 0;
#X connect 173 0 125 0;
#X connect 174 0 129 0;
#X connect 175 0 134 0;
#X connect 176 0 138 0;
#X connect 177 0 142 0;
#X connect 178 0 146 0;
#X connect 179 0 150 0;
#X connect 180 0 154 0;
#X connect 181 0 158 0;
#X connect 182 0 162 0;
#X connect 183 0 166 0;
#X connect 184 0 252 0;
#X connect 185 0 186 0;
#X connect 186 0 187 0;
#X connect 187 0 258 0;
#X connect 188 0 253 0;
#X connect 189 0 190 0;
#X connect 190 0 191 0;
#X connect 191 0 258 0;
#X connect 192 0 170 0;
#X connect 193 0 185 0;
#X connect 194 0 189 0;
#X connect 196 0 250 0;
#X connect 197 0 198 0;
#X connect 198 0 199 0;
#X connect 199 0 258 0;
#X connect 200 0 197 0;
#X connect 201 0 202 0;
#X connect 202 0 206 0;
#X connect 203 0 204 0;
#X connect 204 0 205 0;
#X connect 206 0 203 0;
#X connect 207 0 208 0;
#X connect 208 0 123 0;
#X connect 209 0 126 1;
#X connect 210 0 629 0;
#X connect 211 0 130 1;
#X connect 212 0 254 0;
#X connect 213 0 135 1;
#X connect 214 0 630 0;
#X connect 215 0 139 1;
#X connect 216 0 631 0;
#X connect 217 0 143 1;
#X connect 218 0 632 0;
#X connect 219 0 147 1;
#X connect 220 0 255 0;
#X connect 221 0 151 1;
#X connect 222 0 633 0;
#X connect 223 0 155 1;
#X connect 224 0 634 0;
#X connect 225 0 159 1;
#X connect 226 0 635 0;
#X connect 227 0 163 1;
#X connect 228 0 636 0;
#X connect 229 0 167 1;
#X connect 230 0 637 0;
#X connect 231 0 198 1;
#X connect 232 0 638 0;
#X connect 233 0 171 1;
#X connect 234 0 639 0;
#X connect 235 0 186 1;
#X connect 236 0 256 0;
#X connect 237 0 190 1;
#X connect 238 0 640 0;
#X connect 239 0 207 0;
#X connect 240 0 210 0;
#X connect 241 0 212 0;
#X connect 242 0 216 0;
#X connect 243 0 218 0;
#X connect 244 0 220 0;
#X connect 245 0 222 0;
#X connect 246 0 224 0;
#X connect 247 0 226 0;
#X connect 248 0 228 0;
#X connect 249 0 230 0;
#X connect 250 0 232 0;
#X connect 251 0 234 0;
#X connect 252 0 236 0;
#X connect 253 0 238 0;
#X connect 254 0 211 0;
#X connect 255 0 219 0;
#X connect 256 0 235 0;
#X connect 257 0 3 0;
#X connect 258 0 641 0;
#X connect 259 0 258 1;
#X connect 261 0 779 0;
#X connect 262 0 781 0;
#X connect 264 0 265 0;
#X connect 265 0 266 0;
#X connect 265 0 266 1;
#X connect 266 0 262 1;
#X connect 267 0 264 0;
#X connect 268 0 267 1;
#X connect 269 0 267 0;
#X connect 270 0 261 0;
#X connect 271 0 458 0;
#X connect 272 0 273 1;
#X connect 272 0 277 0;
#X connect 273 0 276 0;
#X connect 274 0 275 0;
#X connect 275 0 273 0;
#X connect 276 0 281 0;
#X connect 277 0 273 0;
#X connect 280 0 458 0;
#X connect 280 0 272 0;
#X connect 282 0 283 0;
#X connect 283 0 286 0;
#X connect 284 0 282 0;
#X connect 284 0 309 0;
#X connect 284 0 310 0;
#X connect 284 0 311 0;
#X connect 284 0 312 0;
#X connect 284 0 313 0;
#X connect 284 0 314 0;
#X connect 284 0 315 0;
#X connect 284 0 319 0;
#X connect 285 0 774 0;
#X connect 286 0 287 0;
#X connect 287 0 285 0;
#X connect 288 0 289 0;
#X connect 289 0 290 0;
#X connect 290 0 285 0;
#X connect 291 0 292 0;
#X connect 292 0 293 0;
#X connect 293 0 285 0;
#X connect 294 0 295 0;
#X connect 295 0 296 0;
#X connect 296 0 285 0;
#X connect 297 0 298 0;
#X connect 298 0 299 0;
#X connect 299 0 285 0;
#X connect 300 0 301 0;
#X connect 301 0 302 0;
#X connect 302 0 285 0;
#X connect 303 0 304 0;
#X connect 304 0 305 0;
#X connect 305 0 285 0;
#X connect 306 0 307 0;
#X connect 307 0 308 0;
#X connect 308 0 285 0;
#X connect 309 0 288 0;
#X connect 310 0 291 0;
#X connect 311 0 294 0;
#X connect 312 0 297 0;
#X connect 313 0 300 0;
#X connect 314 0 303 0;
#X connect 315 0 306 0;
#X connect 316 0 317 0;
#X connect 317 0 318 0;
#X connect 318 0 285 0;
#X connect 319 0 316 0;
#X connect 320 0 337 0;
#X connect 321 0 322 0;
#X connect 321 0 323 0;
#X connect 322 0 321 1;
#X connect 323 0 331 0;
#X connect 324 0 321 0;
#X connect 326 0 324 0;
#X connect 327 0 352 1;
#X connect 328 0 326 0;
#X connect 329 0 328 0;
#X connect 329 0 351 1;
#X connect 330 0 326 0;
#X connect 331 0 320 0;
#X connect 332 0 327 0;
#X connect 333 0 332 1;
#X connect 333 0 335 0;
#X connect 333 0 626 0;
#X connect 334 0 417 0;
#X connect 335 0 336 0;
#X connect 337 0 351 0;
#X connect 338 0 332 0;
#X connect 339 0 341 0;
#X connect 340 0 8 0;
#X connect 341 0 340 1;
#X connect 342 0 67 0;
#X connect 343 0 67 0;
#X connect 344 0 67 0;
#X connect 345 0 67 0;
#X connect 346 0 67 0;
#X connect 348 0 352 0;
#X connect 349 0 321 0;
#X connect 350 0 352 0;
#X connect 351 0 624 0;
#X connect 352 0 349 0;
#X connect 353 0 780 0;
#X connect 354 0 97 1;
#X connect 355 0 356 0;
#X connect 356 0 381 0;
#X connect 356 0 400 0;
#X connect 357 0 381 0;
#X connect 357 0 401 0;
#X connect 358 0 381 0;
#X connect 358 0 402 0;
#X connect 359 0 381 0;
#X connect 359 0 403 0;
#X connect 360 0 404 0;
#X connect 361 0 357 0;
#X connect 362 0 358 0;
#X connect 363 0 359 0;
#X connect 364 0 360 0;
#X connect 365 0 407 0;
#X connect 366 0 381 0;
#X connect 366 0 406 0;
#X connect 367 0 381 0;
#X connect 367 0 405 0;
#X connect 368 0 381 0;
#X connect 368 0 404 0;
#X connect 369 0 381 0;
#X connect 369 0 403 0;
#X connect 370 0 381 0;
#X connect 370 0 402 0;
#X connect 371 0 381 0;
#X connect 371 0 401 0;
#X connect 372 0 381 0;
#X connect 372 0 400 0;
#X connect 373 0 365 0;
#X connect 374 0 366 0;
#X connect 375 0 367 0;
#X connect 376 0 368 0;
#X connect 377 0 369 0;
#X connect 378 0 370 0;
#X connect 379 0 371 0;
#X connect 380 0 372 0;
#X connect 381 0 383 0;
#X connect 382 0 381 1;
#X connect 385 0 382 0;
#X connect 386 0 405 0;
#X connect 387 0 381 0;
#X connect 387 0 406 0;
#X connect 388 0 407 0;
#X connect 389 0 386 0;
#X connect 390 0 387 0;
#X connect 391 0 388 0;
#X connect 392 0 646 0;
#X connect 393 0 647 0;
#X connect 394 0 648 0;
#X connect 395 0 649 0;
#X connect 396 0 650 0;
#X connect 397 0 651 0;
#X connect 398 0 652 0;
#X connect 399 0 653 0;
#X connect 408 0 98 0;
#X connect 409 0 75 0;
#X connect 410 0 411 0;
#X connect 411 0 76 0;
#X connect 412 0 73 0;
#X connect 413 0 67 0;
#X connect 414 0 67 0;
#X connect 415 0 409 0;
#X connect 416 0 657 1;
#X connect 417 0 333 0;
#X connect 418 0 422 0;
#X connect 419 0 286 1;
#X connect 420 0 421 0;
#X connect 421 0 419 0;
#X connect 422 0 420 0;
#X connect 423 0 426 0;
#X connect 424 0 289 1;
#X connect 425 0 608 0;
#X connect 426 0 425 0;
#X connect 427 0 430 0;
#X connect 428 0 292 1;
#X connect 429 0 455 0;
#X connect 430 0 429 0;
#X connect 431 0 434 0;
#X connect 432 0 295 1;
#X connect 433 0 609 0;
#X connect 434 0 433 0;
#X connect 435 0 438 0;
#X connect 436 0 298 1;
#X connect 437 0 610 0;
#X connect 438 0 437 0;
#X connect 439 0 442 0;
#X connect 440 0 301 1;
#X connect 441 0 759 0;
#X connect 442 0 441 0;
#X connect 443 0 446 0;
#X connect 444 0 304 1;
#X connect 445 0 760 0;
#X connect 446 0 445 0;
#X connect 447 0 450 0;
#X connect 448 0 307 1;
#X connect 449 0 456 0;
#X connect 450 0 449 0;
#X connect 451 0 454 0;
#X connect 452 0 317 1;
#X connect 453 0 457 0;
#X connect 454 0 453 0;
#X connect 455 0 428 0;
#X connect 456 0 448 0;
#X connect 457 0 452 0;
#X connect 458 0 272 0;
#X connect 459 0 90 0;
#X connect 460 0 524 0;
#X connect 461 0 462 0;
#X connect 462 0 463 0;
#X connect 463 0 464 0;
#X connect 464 0 532 0;
#X connect 465 0 463 1;
#X connect 466 0 525 0;
#X connect 467 0 468 0;
#X connect 468 0 469 0;
#X connect 469 0 532 0;
#X connect 470 0 526 0;
#X connect 471 0 472 0;
#X connect 472 0 473 0;
#X connect 473 0 532 0;
#X connect 474 0 475 0;
#X connect 475 0 513 0;
#X connect 476 0 477 0;
#X connect 477 0 478 0;
#X connect 478 0 532 0;
#X connect 479 0 527 0;
#X connect 480 0 481 0;
#X connect 481 0 482 0;
#X connect 482 0 532 0;
#X connect 483 0 528 0;
#X connect 484 0 485 0;
#X connect 485 0 486 0;
#X connect 486 0 532 0;
#X connect 487 0 529 0;
#X connect 488 0 489 0;
#X connect 489 0 490 0;
#X connect 490 0 532 0;
#X connect 491 0 530 0;
#X connect 492 0 493 0;
#X connect 493 0 494 0;
#X connect 494 0 532 0;
#X connect 495 0 531 0;
#X connect 496 0 497 0;
#X connect 497 0 498 0;
#X connect 498 0 532 0;
#X connect 499 0 467 0;
#X connect 500 0 471 0;
#X connect 501 0 476 0;
#X connect 502 0 480 0;
#X connect 503 0 484 0;
#X connect 504 0 488 0;
#X connect 505 0 492 0;
#X connect 506 0 496 0;
#X connect 507 0 590 0;
#X connect 508 0 468 1;
#X connect 509 0 773 0;
#X connect 510 0 472 1;
#X connect 511 0 593 0;
#X connect 512 0 477 1;
#X connect 513 0 782 0;
#X connect 514 0 481 1;
#X connect 515 0 594 0;
#X connect 516 0 485 1;
#X connect 517 0 783 0;
#X connect 518 0 489 1;
#X connect 519 0 595 0;
#X connect 520 0 493 1;
#X connect 521 0 784 0;
#X connect 522 0 497 1;
#X connect 523 0 591 0;
#X connect 524 0 507 0;
#X connect 525 0 509 0;
#X connect 526 0 511 0;
#X connect 527 0 515 0;
#X connect 528 0 517 0;
#X connect 529 0 519 0;
#X connect 530 0 521 0;
#X connect 531 0 523 0;
#X connect 532 0 674 0;
#X connect 533 0 532 1;
#X connect 534 0 583 0;
#X connect 535 0 536 0;
#X connect 536 0 537 0;
#X connect 537 0 532 0;
#X connect 538 0 584 0;
#X connect 539 0 540 0;
#X connect 540 0 541 0;
#X connect 541 0 532 0;
#X connect 542 0 585 0;
#X connect 543 0 544 0;
#X connect 544 0 545 0;
#X connect 546 0 587 0;
#X connect 547 0 548 0;
#X connect 548 0 549 0;
#X connect 549 0 532 0;
#X connect 550 0 535 0;
#X connect 551 0 539 0;
#X connect 552 0 543 0;
#X connect 553 0 588 0;
#X connect 554 0 555 0;
#X connect 555 0 556 0;
#X connect 556 0 532 0;
#X connect 557 0 589 0;
#X connect 558 0 559 0;
#X connect 559 0 560 0;
#X connect 560 0 532 0;
#X connect 561 0 547 0;
#X connect 562 0 554 0;
#X connect 563 0 558 0;
#X connect 564 0 586 0;
#X connect 565 0 566 0;
#X connect 566 0 567 0;
#X connect 567 0 532 0;
#X connect 568 0 565 0;
#X connect 569 0 536 1;
#X connect 570 0 596 0;
#X connect 571 0 540 1;
#X connect 572 0 597 0;
#X connect 573 0 544 1;
#X connect 574 0 785 0;
#X connect 575 0 566 1;
#X connect 576 0 598 0;
#X connect 577 0 548 1;
#X connect 578 0 599 0;
#X connect 579 0 555 1;
#X connect 580 0 600 0;
#X connect 581 0 559 1;
#X connect 582 0 592 0;
#X connect 583 0 570 0;
#X connect 584 0 572 0;
#X connect 585 0 574 0;
#X connect 586 0 576 0;
#X connect 587 0 578 0;
#X connect 588 0 580 0;
#X connect 589 0 582 0;
#X connect 590 0 465 0;
#X connect 591 0 522 0;
#X connect 592 0 581 0;
#X connect 593 0 510 0;
#X connect 594 0 514 0;
#X connect 595 0 518 0;
#X connect 596 0 569 0;
#X connect 597 0 571 0;
#X connect 598 0 575 0;
#X connect 599 0 577 0;
#X connect 600 0 579 0;
#X connect 601 0 611 0;
#X connect 602 0 96 0;
#X connect 603 0 656 0;
#X connect 604 0 96 0;
#X connect 605 0 654 0;
#X connect 606 0 96 0;
#X connect 607 0 753 0;
#X connect 608 0 424 0;
#X connect 609 0 432 0;
#X connect 610 0 436 0;
#X connect 611 0 602 0;
#X connect 612 0 614 0;
#X connect 613 0 96 0;
#X connect 614 0 613 0;
#X connect 615 0 757 0;
#X connect 616 0 96 0;
#X connect 617 0 758 0;
#X connect 618 0 96 0;
#X connect 619 0 655 0;
#X connect 620 0 96 0;
#X connect 621 0 623 0;
#X connect 622 0 96 0;
#X connect 623 0 622 0;
#X connect 625 0 284 0;
#X connect 627 0 331 1;
#X connect 629 0 209 0;
#X connect 630 0 213 0;
#X connect 631 0 215 0;
#X connect 632 0 217 0;
#X connect 633 0 221 0;
#X connect 634 0 223 0;
#X connect 635 0 225 0;
#X connect 636 0 227 0;
#X connect 637 0 229 0;
#X connect 638 0 231 0;
#X connect 639 0 233 0;
#X connect 640 0 237 0;
#X connect 642 0 269 0;
#X connect 644 0 533 0;
#X connect 645 0 259 0;
#X connect 646 0 605 0;
#X connect 647 0 612 0;
#X connect 648 0 619 0;
#X connect 649 0 621 0;
#X connect 650 0 603 0;
#X connect 651 0 617 0;
#X connect 652 0 615 0;
#X connect 653 0 601 0;
#X connect 654 0 606 0;
#X connect 655 0 620 0;
#X connect 656 0 604 0;
#X connect 657 0 81 0;
#X connect 658 0 81 1;
#X connect 659 0 660 0;
#X connect 659 1 666 0;
#X connect 660 0 661 0;
#X connect 661 0 662 0;
#X connect 662 0 672 0;
#X connect 663 0 755 0;
#X connect 664 0 665 0;
#X connect 665 0 756 0;
#X connect 666 0 664 0;
#X connect 667 0 668 0;
#X connect 668 0 669 0;
#X connect 669 0 756 1;
#X connect 671 0 672 1;
#X connect 672 0 663 0;
#X connect 673 0 659 0;
#X connect 675 0 724 0;
#X connect 676 0 677 0;
#X connect 677 0 678 0;
#X connect 678 0 731 0;
#X connect 679 0 677 1;
#X connect 680 0 725 0;
#X connect 681 0 682 0;
#X connect 682 0 683 0;
#X connect 683 0 731 0;
#X connect 684 0 726 0;
#X connect 685 0 686 0;
#X connect 686 0 687 0;
#X connect 687 0 731 0;
#X connect 688 0 689 0;
#X connect 689 0 715 0;
#X connect 690 0 691 0;
#X connect 691 0 692 0;
#X connect 692 0 731 0;
#X connect 693 0 727 0;
#X connect 694 0 695 0;
#X connect 695 0 696 0;
#X connect 696 0 731 0;
#X connect 697 0 728 0;
#X connect 698 0 699 0;
#X connect 699 0 700 0;
#X connect 700 0 731 0;
#X connect 701 0 729 0;
#X connect 702 0 703 0;
#X connect 703 0 704 0;
#X connect 704 0 731 0;
#X connect 705 0 730 0;
#X connect 706 0 707 0;
#X connect 707 0 708 0;
#X connect 708 0 731 0;
#X connect 709 0 741 0;
#X connect 710 0 682 1;
#X connect 711 0 735 0;
#X connect 712 0 686 1;
#X connect 713 0 736 0;
#X connect 714 0 691 1;
#X connect 715 0 737 0;
#X connect 716 0 695 1;
#X connect 717 0 742 0;
#X connect 718 0 699 1;
#X connect 719 0 738 0;
#X connect 720 0 703 1;
#X connect 721 0 739 0;
#X connect 722 0 707 1;
#X connect 723 0 740 0;
#X connect 724 0 709 0;
#X connect 725 0 711 0;
#X connect 726 0 713 0;
#X connect 727 0 717 0;
#X connect 728 0 719 0;
#X connect 729 0 721 0;
#X connect 730 0 723 0;
#X connect 731 0 733 0;
#X connect 732 0 731 1;
#X connect 734 0 732 0;
#X connect 735 0 710 0;
#X connect 736 0 712 0;
#X connect 737 0 714 0;
#X connect 738 0 718 0;
#X connect 739 0 720 0;
#X connect 740 0 722 0;
#X connect 741 0 679 0;
#X connect 742 0 716 0;
#X connect 743 0 676 0;
#X connect 744 0 681 0;
#X connect 745 0 685 0;
#X connect 746 0 690 0;
#X connect 747 0 694 0;
#X connect 748 0 698 0;
#X connect 749 0 702 0;
#X connect 750 0 706 0;
#X connect 751 0 754 0;
#X connect 752 0 751 0;
#X connect 753 0 751 1;
#X connect 754 0 91 0;
#X connect 755 0 670 0;
#X connect 756 0 663 1;
#X connect 757 0 616 0;
#X connect 758 0 618 0;
#X connect 759 0 440 0;
#X connect 760 0 444 0;
#X connect 761 0 764 0;
#X connect 763 0 762 0;
#X connect 764 0 765 0;
#X connect 764 0 763 0;
#X connect 765 0 764 1;
#X connect 766 0 763 0;
#X connect 766 0 764 1;
#X connect 767 0 777 0;
#X connect 768 0 769 0;
#X connect 769 0 333 0;
#X connect 770 0 761 0;
#X connect 771 0 766 0;
#X connect 773 0 508 0;
#X connect 775 0 459 0;
#X connect 776 0 109 0;
#X connect 777 0 768 0;
#X connect 778 0 263 0;
#X connect 779 0 262 0;
#X connect 780 0 270 0;
#X connect 781 0 778 0;
#X connect 782 0 512 0;
#X connect 783 0 516 0;
#X connect 784 0 520 0;
#X connect 785 0 573 0;
#X connect 786 0 329 0;
#X connect 789 0 792 0;
#X connect 790 0 791 0;
#X connect 791 0 793 0;
#X connect 792 0 790 0;
#X connect 793 0 801 0;
#X connect 794 0 802 0;
#X connect 795 0 789 0;
#X connect 798 0 797 0;
#X connect 798 0 797 1;
#X connect 799 0 800 0;
#X connect 800 0 798 1;
#X connect 801 0 798 0;
#X connect 802 0 803 0;
#X connect 803 0 793 1;
#X connect 805 0 804 0;
#X connect 805 0 804 1;
#X connect 806 0 807 0;
#X connect 807 0 805 1;
#X connect 808 0 815 0;
#X connect 809 0 808 0;
#X connect 810 0 809 0;
#X connect 811 0 805 0;
#X connect 812 0 811 0;
#X connect 813 0 811 1;
#X connect 814 0 813 0;
#X connect 815 0 814 0;
#X connect 816 0 812 0;
#X connect 817 0 816 0;
#X connect 818 0 817 0;
#X connect 820 0 821 0;
#X connect 821 0 824 0;
#X connect 822 0 823 0;
#X connect 823 0 810 0;
#X connect 823 0 824 0;
#X connect 824 0 810 0;
#X connect 824 0 826 0;
#X connect 825 0 822 0;
#X connect 826 0 824 1;
#X connect 827 0 828 0;
#X connect 828 0 829 0;
#X connect 829 0 850 1;
#X connect 830 0 831 0;
#X connect 831 0 832 0;
#X connect 831 0 833 0;
#X connect 832 0 831 1;
#X connect 833 0 842 0;
#X connect 834 0 835 0;
#X connect 835 0 836 0;
#X connect 835 0 837 0;
#X connect 835 0 841 0;
#X connect 836 0 838 0;
#X connect 837 0 839 0;
#X connect 838 0 852 0;
#X connect 839 0 853 0;
#X connect 840 0 845 0;
#X connect 840 0 854 0;
#X connect 841 0 840 0;
#X connect 842 0 834 0;
#X connect 843 0 850 0;
#X connect 844 0 830 0;
#X connect 844 0 827 0;
#X connect 845 0 844 0;
#X connect 847 0 846 0;
#X connect 847 0 846 1;
#X connect 848 0 849 0;
#X connect 849 0 847 1;
#X connect 850 0 847 0;
#X connect 851 0 858 0;
#X connect 852 0 843 0;
#X connect 853 0 843 0;
#X connect 854 0 843 0;
#X connect 856 0 845 0;
#X connect 856 0 851 0;
#X connect 858 0 844 1;
#X connect 859 0 795 0;
